<svg width="57" height="57" viewBox="0 0 57 57" fill="none" xmlns="http://www.w3.org/2000/svg">
<path d="M43.4139 4.83099H12.9999C7.71695 4.83099 3.41895 9.12799 3.41895 14.411V24.531V44.826C3.41895 50.109 7.71695 54.406 12.9999 54.406H43.4149C48.6979 54.406 52.9949 50.109 52.9949 44.826V24.53V14.41C52.9939 9.12699 48.6969 4.83099 43.4139 4.83099ZM46.1619 10.544L47.2579 10.54V11.631V18.943L38.8829 18.97L38.8539 10.568L46.1619 10.544ZM21.1309 24.53C22.7189 22.333 25.2949 20.892 28.2069 20.892C31.1189 20.892 33.6949 22.333 35.2809 24.53C36.3139 25.964 36.9329 27.718 36.9329 29.618C36.9329 34.429 33.0149 38.343 28.2059 38.343C23.3939 38.343 19.4799 34.429 19.4799 29.618C19.4809 27.718 20.0979 25.964 21.1309 24.53ZM48.1639 44.825C48.1639 47.446 46.0329 49.575 43.4139 49.575H12.9999C10.3799 49.575 8.24895 47.446 8.24895 44.825V24.53H15.6489C15.0099 26.102 14.6509 27.819 14.6509 29.618C14.6509 37.091 20.7309 43.175 28.2069 43.175C35.6819 43.175 41.7619 37.091 41.7619 29.618C41.7619 27.819 41.4009 26.102 40.7619 24.53H48.1639V44.825Z" fill="white"/>
</svg>
