<svg width="57" height="57" viewBox="0 0 57 57" fill="none" xmlns="http://www.w3.org/2000/svg">
<path d="M39.3319 18.0622L12.6743 3.79049C11.289 3.04889 9.78692 3.01099 8.48682 3.48499L31.1979 26.1961L39.3319 18.0622Z" fill="white"/>
<path d="M49.2728 23.3844L41.5941 19.2735L32.9346 27.9329L41.5941 36.5924L49.2727 32.4814C52.9051 30.5368 52.9051 25.329 49.2728 23.3844Z" fill="white"/>
<path d="M6.40749 4.87939C5.59299 5.77459 5.07959 6.96969 5.07959 8.33899V47.5268C5.07959 48.8961 5.59299 50.0913 6.40739 50.9865L29.461 27.9329L6.40749 4.87939Z" fill="white"/>
<path d="M8.48682 52.3809C9.78682 52.8548 11.289 52.8171 12.6743 52.0754L39.3319 37.8037L31.198 29.6698L8.48682 52.3809Z" fill="white"/>
</svg>
