<svg width="128" height="199" viewBox="0 0 128 199" fill="none" xmlns="http://www.w3.org/2000/svg">
<g clip-path="url(#clip0_134_2)">
<path d="M2.47754 45.5784L3.797 170.034C3.797 170.034 9.51777 190.001 19.3199 192.341C29.122 194.682 80.0742 194.33 80.0742 194.33L105.794 192.341C105.794 192.341 119.708 187.955 121.542 179.523C123.373 171.09 126.017 144.184 126.017 144.184L124.602 46.8735C124.602 46.8735 92.4146 36.231 72.7262 35.5269C53.0354 34.8228 30.1542 33.9122 24.7142 37.3604C19.2742 40.8087 2.47754 45.5784 2.47754 45.5784Z" fill="#121212"/>
<path d="M5.79802 47.6036V165.129C5.79802 172.553 8.73335 179.534 14.0627 184.787C19.404 190.053 26.509 192.952 34.0687 192.952H94.0001C101.56 192.952 108.665 190.053 114.006 184.787C119.338 179.534 122.271 172.553 122.271 165.129V47.667C102.144 40.8791 82.2251 37.4124 63.0299 37.3611C62.8855 37.3606 62.7388 37.3603 62.5944 37.3603C43.3174 37.3603 24.2209 40.8051 5.79802 47.6036ZM94.0001 198.757H34.0687C24.9788 198.757 16.4278 195.265 9.9941 188.924C3.54983 182.571 0 174.12 0 165.129V43.5937L1.8649 42.8809C21.6705 35.3104 42.2636 31.5016 63.0467 31.556C83.5027 31.6112 104.724 35.411 126.12 42.8505L128.069 43.5279V165.129C128.069 174.12 124.52 182.57 118.075 188.924C111.641 195.265 103.092 198.757 94.0001 198.757Z" fill="#9E8558"/>
<path d="M62.8469 25.0917L63.2848 73.3127L67.6566 25.2837L64.1582 73.3816L72.4373 25.8548L65.0244 73.5206L77.1555 26.8051L65.8761 73.7285L81.7823 28.1252L66.7062 74.0024L86.2839 29.8084L67.5146 74.3406L90.634 31.8437L68.2893 74.7414L94.806 34.2174L69.0304 75.2037L98.7688 36.9135L69.733 75.7231L102.5 39.9155L70.3874 76.2964L105.972 43.2042L70.9961 76.9203L109.168 46.7569L71.5495 77.5895L112.06 50.5519L72.0475 78.3007L114.632 54.5647L72.4854 79.0484L116.869 58.7671L72.8632 79.8296L118.758 63.1343L73.1736 80.6378L120.281 67.6363L73.4166 81.4674L121.436 72.246L73.5922 82.3144L122.208 76.9309L73.6981 83.1722L122.596 81.6625L73.7318 84.0363L122.596 86.4091L73.6981 84.8994L122.208 91.1415L73.5922 85.7582L121.436 95.8268L73.4166 86.6042L120.281 100.435L73.1736 87.4348L118.758 104.938L72.8632 88.2418L116.869 109.305L72.4854 89.0242L114.632 113.509L72.0475 89.771L112.06 117.52L71.5495 90.4833L109.168 121.315L70.9961 91.1535L105.972 124.868L70.3874 91.7762L102.5 128.156L69.733 92.3495L98.7688 131.159L69.0304 92.8677L94.806 133.856L68.2893 93.33L90.634 136.229L67.5146 93.732L86.2839 138.263L66.7062 94.0714L81.7823 139.948L65.8761 94.3451L77.1555 141.267L65.0244 94.5508L72.4373 142.217L64.1582 94.6898L67.6566 142.79L63.2848 94.759L62.8469 142.981L62.4067 94.759L58.0349 142.79L61.5333 94.6898L53.2542 142.217L60.6695 94.5508L48.536 141.267L59.8178 94.3451L43.9092 139.948L58.9853 94.0714L39.4075 138.263L58.1793 93.732L35.0551 136.229L57.4021 93.33L30.8854 133.856L56.6611 92.8677L26.9227 131.159L55.9609 92.3495L23.191 128.156L55.3041 91.7762L19.7191 124.868L54.6978 91.1535L16.5263 121.315L54.142 90.4833L13.6319 117.52L53.6439 89.771L11.0599 113.509L53.206 89.0242L8.82227 109.305L52.8307 88.2418L6.93355 104.938L52.5203 87.4348L5.40885 100.435L52.2749 86.6042L4.25662 95.8268L52.0993 85.7582L3.4838 91.1415L51.9934 84.8994L3.0957 86.4091L51.9573 84.0363L3.0957 81.6625L51.9934 83.1722L3.4838 76.9309L52.0993 82.3144L4.25662 72.246L52.2749 81.4674L5.40885 67.6363L52.5203 80.6378L6.93355 63.1343L52.8307 79.8296L8.82227 58.7671L53.206 79.0484L11.0599 54.5647L53.6439 78.3007L13.6319 50.5519L54.142 77.5895L16.5263 46.7569L54.6978 76.9203L19.7191 43.2042L55.3041 76.2964L23.191 39.9155L55.9609 75.7231L26.9227 36.9135L56.6611 75.2037L30.8854 34.2174L57.4021 74.7414L35.0551 31.8437L58.1793 74.3406L39.4075 29.8084L58.9853 74.0024L43.9092 28.1252L59.8178 73.7285L48.536 26.8051L60.6695 73.5206L53.2542 25.8548L61.5333 73.3816L58.0349 25.2837L62.4067 73.3127L62.8469 25.0917Z" fill="#9E8558"/>
<path d="M103.615 180.806V174C103.615 173.967 103.648 173.882 103.716 173.746L107.014 170.445C107.149 170.377 107.233 170.344 107.267 170.344C107.503 170.344 107.623 170.463 107.623 170.699V182.126C107.623 182.363 107.503 182.481 107.267 182.481H95.9564C95.7519 182.481 95.6509 182.363 95.6509 182.126V160.491C95.6172 159.814 95.3814 159.221 94.9411 158.713C94.5032 158.205 93.945 157.918 93.2665 157.85C93.0644 157.783 92.9634 157.664 92.9634 157.495C92.9634 157.258 93.0813 157.139 93.3171 157.139H107.267C107.503 157.139 107.623 157.258 107.623 157.495V160.796C107.623 161.033 107.503 161.151 107.267 161.151H103.971C103.733 161.151 103.615 161.033 103.615 160.796V158.815C103.615 158.579 103.497 158.46 103.261 158.46H99.9625C99.7267 158.46 99.6088 158.579 99.6088 158.815V167.093C99.6088 167.33 99.7267 167.449 99.9625 167.449C100.066 167.449 100.258 167.365 100.547 167.195C100.833 167.025 101.146 166.832 101.485 166.611C101.822 166.391 102.145 166.171 102.448 165.951C102.753 165.731 102.956 165.587 103.057 165.519C103.124 165.519 103.167 165.511 103.184 165.493C103.201 165.477 103.227 165.468 103.261 165.468C103.497 165.468 103.615 165.587 103.615 165.824V166.636C103.615 166.772 103.446 166.958 103.107 167.195C102.77 167.432 102.381 167.677 101.94 167.931C101.502 168.185 101.072 168.423 100.648 168.642C100.225 168.862 99.9456 169.007 99.8109 169.074C99.6761 169.142 99.6088 169.244 99.6088 169.378V180.806C99.6088 181.042 99.7267 181.161 99.9625 181.161H103.261C103.497 181.161 103.615 181.042 103.615 180.806Z" fill="white"/>
<path d="M28.5687 167.779C28.6698 167.711 28.7203 167.626 28.7203 167.525V157.469C28.7203 157.266 28.8382 157.165 29.0764 157.165H32.3726C32.6084 157.165 32.7287 157.266 32.7287 157.469V182.101C32.7287 182.337 32.6084 182.456 32.3726 182.456H29.0764C28.8382 182.456 28.7203 182.337 28.7203 182.101V170.013C28.7203 169.777 28.6024 169.658 28.3666 169.658C28.3329 169.658 28.3064 169.667 28.2896 169.683C28.2728 169.701 28.2463 169.708 28.2126 169.708C27.0986 170.454 25.9991 171.097 24.9164 171.639C24.7816 171.707 24.7143 171.808 24.7143 171.943V182.101C24.7143 182.337 24.594 182.456 24.3582 182.456H21.0619C20.8574 182.456 20.7563 182.337 20.7563 182.101V160.465C20.7563 159.789 20.5278 159.196 20.073 158.688C19.6159 158.18 19.0505 157.893 18.372 157.825C18.1699 157.825 18.0688 157.706 18.0688 157.469C18.0688 157.266 18.1867 157.165 18.4225 157.165H24.3582C24.594 157.165 24.7143 157.266 24.7143 157.469V169.658C24.7143 169.895 24.8321 170.013 25.0679 170.013C25.1714 170.013 25.3903 169.912 25.7272 169.708C26.0664 169.505 26.4201 169.277 26.7931 169.023C27.166 168.769 27.5293 168.524 27.883 168.287C28.2391 168.05 28.4676 167.881 28.5687 167.779Z" fill="white"/>
<path d="M43.7916 158.46C43.5558 158.46 43.4379 158.579 43.4379 158.815V180.806C43.4379 181.042 43.5558 181.161 43.7916 181.161H47.0902C47.326 181.161 47.4439 181.042 47.4439 180.806V158.815C47.4439 158.579 47.326 158.46 47.0902 158.46H43.7916ZM51.3513 159.729C51.4186 159.798 51.4523 159.865 51.4523 159.933V182.126C51.4523 182.363 51.332 182.481 51.0963 182.481H42.271C42.1699 182.481 42.0833 182.448 42.016 182.38L39.5329 179.891C39.4968 179.858 39.48 179.79 39.48 179.688V160.491C39.48 159.814 39.2514 159.221 38.7967 158.713C38.3396 158.205 37.7741 157.918 37.098 157.85C36.8935 157.783 36.7925 157.664 36.7925 157.495C36.7925 157.258 36.9104 157.139 37.1462 157.139H48.6108C48.7119 157.139 48.7961 157.173 48.8635 157.241L51.3513 159.729Z" fill="white"/>
<path d="M88.6446 171.791C88.813 171.859 88.8996 171.977 88.8996 172.146V182.101C88.8996 182.337 88.7793 182.456 88.5435 182.456H77.2328C77.0283 182.456 76.9273 182.337 76.9273 182.101V172.045C76.9273 171.842 77.0283 171.74 77.2328 171.74C77.3339 171.74 77.4013 171.758 77.4349 171.791C77.9763 172.197 78.5176 172.578 79.059 172.933C79.598 173.289 80.1561 173.653 80.7336 174.025C80.8346 174.06 80.8852 174.144 80.8852 174.279V180.78C80.8852 181.017 81.003 181.135 81.2388 181.135H84.5375C84.7733 181.135 84.8912 181.017 84.8912 180.78V171.943C84.8912 171.774 84.8238 171.672 84.6891 171.639C83.2695 170.927 81.9077 170.107 80.6061 169.175C79.3044 168.244 78.0942 167.204 76.9802 166.052C76.9441 166.019 76.9273 165.934 76.9273 165.798V160.465C76.9273 159.789 76.6987 159.196 76.2439 158.688C75.7868 158.18 75.2214 157.893 74.5453 157.825C74.3408 157.825 74.2397 157.706 74.2397 157.469C74.2397 157.266 74.3576 157.165 74.5934 157.165H88.5435C88.7793 157.165 88.8996 157.266 88.8996 157.469V167.118C88.8996 167.356 88.7793 167.474 88.5435 167.474C88.4425 167.474 88.197 167.39 87.8073 167.22C87.4199 167.051 87.0061 166.848 86.5658 166.61C86.1255 166.374 85.7357 166.146 85.3988 165.925C85.0596 165.705 84.8912 165.544 84.8912 165.443V158.84C84.8912 158.604 84.7733 158.485 84.5375 158.485H81.2388C81.003 158.485 80.8852 158.604 80.8852 158.84V167.525C80.8852 167.626 80.9357 167.711 81.0367 167.779C83.3706 169.54 85.9065 170.877 88.6446 171.791Z" fill="white"/>
<path d="M69.8199 182.456H58.5092C58.3047 182.456 58.2036 182.337 58.2036 182.101V160.465C58.2036 159.789 57.9751 159.196 57.5203 158.688C57.0632 158.18 56.4978 157.893 55.8217 157.825C55.6172 157.825 55.5161 157.706 55.5161 157.469C55.5161 157.266 55.634 157.165 55.8698 157.165H61.856C62.0605 157.165 62.1615 157.266 62.1615 157.469V180.78C62.1615 181.017 62.2794 181.135 62.5152 181.135H65.8138C66.0496 181.135 66.1675 181.017 66.1675 180.78V157.469C66.1675 157.266 66.2854 157.165 66.5236 157.165H69.8199C70.0557 157.165 70.1759 157.266 70.1759 157.469V182.101C70.1759 182.337 70.0557 182.456 69.8199 182.456Z" fill="white"/>
<path d="M81.2412 130.85C81.0031 130.85 80.8852 130.969 80.8852 131.205V142.023C80.8852 142.259 81.0031 142.378 81.2412 142.378C81.3423 142.378 81.5853 142.269 81.9751 142.048C82.3625 141.828 82.7691 141.574 83.1925 141.286C83.616 140.999 84.0034 140.719 84.3595 140.448C84.7131 140.178 84.8912 139.991 84.8912 139.889V131.205C84.8912 130.969 84.7733 130.85 84.5375 130.85H81.2412ZM81.0873 144.003C80.9525 144.071 80.8852 144.173 80.8852 144.308V154.465C80.8852 154.702 80.7841 154.82 80.5796 154.82H77.2328C77.0307 154.82 76.9297 154.702 76.9297 154.465V132.83C76.9297 132.153 76.7011 131.561 76.2439 131.053C75.7868 130.545 75.2214 130.257 74.5453 130.189C74.3408 130.189 74.2397 130.071 74.2397 129.834C74.2397 129.63 74.36 129.529 74.5958 129.529H88.5435C88.7793 129.529 88.8996 129.63 88.8996 129.834V154.465C88.8996 154.702 88.7793 154.82 88.5435 154.82H85.2473C85.0091 154.82 84.8912 154.702 84.8912 154.465V142.378C84.8912 142.142 84.7733 142.023 84.5375 142.023C84.5038 142.023 84.4773 142.031 84.4605 142.048C84.4437 142.065 84.4172 142.073 84.3835 142.073C83.2695 142.818 82.17 143.462 81.0873 144.003Z" fill="#9E8558"/>
<path d="M107.317 154.846H96.0067C95.7685 154.846 95.6507 154.727 95.6507 154.491V132.856C95.6507 132.179 95.4317 131.586 94.9914 131.078C94.5535 130.57 93.9953 130.283 93.3168 130.215C93.1147 130.147 93.0137 130.029 93.0137 129.86C93.0137 129.623 93.134 129.504 93.3698 129.504H99.303C99.5412 129.504 99.6591 129.623 99.6591 129.86V153.17C99.6591 153.407 99.777 153.526 100.013 153.526H103.311C103.547 153.526 103.665 153.407 103.665 153.17V143.165C103.665 142.929 103.783 142.809 104.021 142.809H107.317C107.522 142.809 107.623 142.929 107.623 143.165V154.491C107.623 154.727 107.522 154.846 107.317 154.846Z" fill="#9E8558"/>
<path d="M28.3666 130.85H25.0679C24.8321 130.85 24.7143 130.969 24.7143 131.205V142.023C24.7143 142.259 24.8321 142.378 25.0679 142.378C25.1714 142.378 25.4144 142.269 25.8042 142.048C26.1916 141.828 26.5982 141.574 27.0216 141.286C27.4427 140.999 27.8324 140.719 28.1885 140.448C28.5422 140.178 28.7203 139.991 28.7203 139.889V131.205C28.7203 130.969 28.6024 130.85 28.3666 130.85ZM28.2126 142.073C27.0986 142.818 25.9991 143.462 24.9164 144.003C24.7816 144.071 24.7143 144.173 24.7143 144.308V154.465C24.7143 154.702 24.6108 154.82 24.4087 154.82H21.0619C20.8574 154.82 20.7563 154.702 20.7563 154.465V132.83C20.7563 132.153 20.5278 131.561 20.073 131.053C19.6159 130.545 19.0505 130.257 18.3744 130.189C18.1699 130.189 18.0688 130.071 18.0688 129.834C18.0688 129.63 18.1867 129.529 18.4249 129.529H32.3726C32.6084 129.529 32.7287 129.63 32.7287 129.834V138.163C32.7287 138.264 32.6084 138.442 32.3726 138.696C32.1368 138.95 31.8577 139.213 31.5353 139.483C31.2153 139.754 30.9097 140.008 30.6234 140.245C30.3347 140.482 30.1398 140.651 30.0388 140.753C29.8367 140.889 29.8367 141.057 30.0388 141.261L32.6252 143.597C32.695 143.732 32.7287 143.817 32.7287 143.851V154.465C32.7287 154.702 32.6084 154.82 32.3726 154.82H29.0764C28.8382 154.82 28.7203 154.702 28.7203 154.465V142.378C28.7203 142.142 28.6024 142.023 28.3666 142.023C28.3329 142.023 28.3064 142.031 28.2896 142.048C28.2728 142.065 28.2463 142.073 28.2126 142.073Z" fill="#9E8558"/>
<path d="M58.7113 144.155C59.2526 144.562 59.794 144.942 60.3353 145.298C60.8743 145.654 61.4325 146.018 62.0099 146.39C62.111 146.424 62.1615 146.509 62.1615 146.644V153.145C62.1615 153.382 62.2794 153.5 62.5152 153.5H65.8138C66.0496 153.5 66.1675 153.382 66.1675 153.145V144.308C66.1675 144.139 66.1002 144.037 65.9654 144.003C64.5459 143.292 63.1841 142.472 61.8824 141.54C60.5808 140.609 59.3706 139.568 58.2566 138.417C58.2205 138.383 58.2036 138.298 58.2036 138.163V132.83C58.2036 132.153 57.9751 131.561 57.5203 131.053C57.0632 130.545 56.4978 130.257 55.8217 130.189C55.6172 130.189 55.5161 130.071 55.5161 129.834C55.5161 129.63 55.634 129.529 55.8698 129.529H61.856C62.0605 129.529 62.1615 129.63 62.1615 129.834V139.889C62.1615 139.991 62.3299 140.178 62.6692 140.448C63.006 140.719 63.3862 140.999 63.8096 141.286C64.2307 141.574 64.6469 141.828 65.0512 142.048C65.4578 142.269 65.7128 142.378 65.8138 142.378C66.0496 142.378 66.1675 142.259 66.1675 142.023V129.834C66.1675 129.63 66.2854 129.529 66.5236 129.529H69.8199C70.0557 129.529 70.1759 129.63 70.1759 129.834V154.465C70.1759 154.702 70.0557 154.82 69.8199 154.82H58.5092C58.3047 154.82 58.2036 154.702 58.2036 154.465V144.409C58.2036 144.206 58.3047 144.104 58.5092 144.104C58.6102 144.104 58.6776 144.122 58.7113 144.155Z" fill="#9E8558"/>
<path d="M47.4439 153.17V131.18C47.4439 130.943 47.326 130.824 47.0902 130.824H43.7916C43.5558 130.824 43.4379 130.943 43.4379 131.18V153.17C43.4379 153.407 43.5558 153.526 43.7916 153.526H47.0902C47.326 153.526 47.4439 153.407 47.4439 153.17ZM51.0963 154.846H39.7856C39.5811 154.846 39.48 154.727 39.48 154.491V132.856C39.48 132.179 39.2514 131.586 38.7967 131.078C38.3396 130.57 37.7741 130.283 37.098 130.215C36.8935 130.147 36.7925 130.029 36.7925 129.86C36.7925 129.623 36.9104 129.504 37.1462 129.504H51.0963C51.332 129.504 51.4523 129.623 51.4523 129.86V154.491C51.4523 154.727 51.332 154.846 51.0963 154.846Z" fill="#9E8558"/>
<path d="M98.1435 15.0252C97.7441 14.2308 96.9308 13.7297 96.0406 13.7297H95.699C95.6533 13.7297 95.6075 13.7309 95.5618 13.7338L94.8761 13.774C94.8352 13.7764 94.7943 13.7801 94.7534 13.7844L94.034 13.8668C93.9979 13.8711 93.9594 13.8764 93.9233 13.8827L93.56 13.9431C93.5191 13.9499 93.4782 13.9581 93.4373 13.9672L92.7179 14.1231C92.6674 14.1332 92.6193 14.1452 92.5712 14.1585L92.2103 14.2592C92.1838 14.2667 92.1573 14.2744 92.1308 14.2826L91.3657 14.5247C91.3104 14.5425 91.2551 14.562 91.1997 14.5837L90.3937 14.9062C90.3648 14.9185 90.3336 14.9315 90.3023 14.9453L89.4963 15.3083C89.4554 15.3276 89.412 15.348 89.3711 15.3699L87.5931 16.2894C87.5763 16.2988 87.557 16.3085 87.5402 16.3186L86.2914 17.0039C86.2818 17.009 86.2722 17.0145 86.2626 17.0198L85.6587 17.3624C85.6418 17.3723 85.625 17.3821 85.6081 17.3922L84.9417 17.7929L84.7035 16.5373C84.6938 16.4956 84.6866 16.4542 84.677 16.4133L84.434 15.4254C84.4316 15.4099 84.4268 15.3945 84.422 15.3791L84.1814 14.4717C84.1694 14.4252 84.1549 14.3789 84.1405 14.3331L83.9985 13.9099C83.9937 13.8988 83.9913 13.8875 83.9865 13.8764L83.7362 13.1448C83.7074 13.0564 83.6737 12.9697 83.6328 12.8854L83.4716 12.5426C83.1805 11.922 82.6319 11.4595 81.9727 11.2757C81.3134 11.0914 80.606 11.2047 80.0358 11.5855L79.545 11.9061C79.4969 11.937 79.4511 11.9697 79.4054 12.0042L78.7245 12.5207C78.7029 12.537 78.6812 12.5539 78.6596 12.571L76.9898 13.9292L75.9191 14.7475L75.0529 15.3907L74.6271 14.4502C74.615 14.4225 74.6006 14.3948 74.5886 14.3676L73.773 12.7148C73.7657 12.7011 73.7585 12.6874 73.7513 12.6739L73.3302 11.8471C73.3254 11.8401 73.323 11.8329 73.3182 11.8259L72.8948 11.0197C72.8851 10.9985 72.8731 10.9777 72.8611 10.957L72.0045 9.42278C71.9925 9.4011 71.9805 9.37942 71.9685 9.35822L71.1119 7.90347C71.1071 7.89504 71.1023 7.8866 71.0975 7.87817L70.674 7.17259C70.6668 7.15959 70.6596 7.14658 70.6499 7.13381L69.8054 5.78288C69.7886 5.75663 69.7717 5.73061 69.7549 5.70484L68.9297 4.49531C68.92 4.48158 68.9104 4.46785 68.9008 4.4546L68.4966 3.88994C68.4917 3.88344 68.4869 3.87694 68.4821 3.87043L68.102 3.34625C68.0923 3.33397 68.0827 3.32192 68.0731 3.30988L67.3393 2.34823C67.3128 2.31619 67.2887 2.28487 67.2623 2.25404L66.591 1.46415C66.5645 1.43235 66.5357 1.40104 66.5068 1.37069L65.927 0.748456C65.4915 0.281365 64.8827 0.0113244 64.2451 0.000484238C63.6075 -0.0130058 62.9916 0.239208 62.5393 0.691365L62.2385 0.993687C62.2217 1.01127 62.2024 1.0291 62.1856 1.04741L61.8848 1.36996C61.856 1.4008 61.8271 1.43211 61.8006 1.46415L61.4782 1.84717C61.4686 1.85897 61.459 1.87054 61.4493 1.88234L60.7516 2.73992C60.7348 2.7616 60.7179 2.78376 60.7011 2.80617L60.3185 3.31036C60.3089 3.32192 60.2993 3.33348 60.2921 3.34505L59.9095 3.86923C59.9047 3.87645 59.8975 3.88368 59.8926 3.89091L59.4909 4.45556C59.4764 4.4758 59.462 4.49675 59.4475 4.51771L58.6415 5.72724C58.6295 5.74554 58.6175 5.7641 58.6054 5.78264L57.3182 7.8365C57.3062 7.85866 57.2917 7.88106 57.2797 7.90347L56.4232 9.35822C56.4112 9.37942 56.3967 9.4011 56.3847 9.42278L55.5305 10.957C55.5185 10.9777 55.5065 10.9985 55.4969 11.0197L55.0734 11.8259C55.0686 11.8332 55.0662 11.8404 55.0614 11.8476L54.6403 12.6744C54.6331 12.6876 54.6259 12.7011 54.6187 12.7146L53.803 14.3681C53.791 14.3951 53.7766 14.4223 53.7645 14.4497L53.2593 15.5586L52.1525 14.7487L50.1747 13.2012L49.4097 12.571C49.388 12.5539 49.3663 12.537 49.3447 12.5207L48.7432 12.0495C48.6782 11.9984 48.6133 11.9505 48.5435 11.9061L48.262 11.7248C48.2499 11.7166 48.2355 11.7084 48.2235 11.7004L47.9612 11.5393C47.3742 11.177 46.6572 11.0912 46.0003 11.3046C45.3435 11.5183 44.8141 12.0097 44.5495 12.6488L44.4099 12.9914C44.4027 13.0063 44.3979 13.021 44.3907 13.0357L44.2511 13.3987C44.2415 13.4235 44.2319 13.4483 44.2223 13.4732L44.0827 13.8764C44.0659 13.9198 44.0538 13.9636 44.0394 14.0077L43.9191 14.4312C43.9167 14.4447 43.9119 14.4582 43.9095 14.4717L43.6665 15.3791C43.6617 15.3945 43.6593 15.4099 43.6545 15.4254L43.4139 16.4133C43.4066 16.4405 43.3994 16.4679 43.3946 16.4954L43.1733 17.564C43.1708 17.5801 43.166 17.5963 43.1636 17.6127L42.7546 17.3751C42.7474 17.3708 42.7402 17.3667 42.733 17.3624L42.129 17.0198C42.1194 17.0143 42.1098 17.009 42.1002 17.0039L40.8514 16.3186C40.8346 16.3085 40.8154 16.2988 40.7985 16.2894L39.456 15.5986L39.083 15.3924C39.0157 15.3555 38.9459 15.3215 38.8761 15.2909L38.0893 14.9453C38.0581 14.9315 38.0268 14.9185 37.9979 14.9062L37.1919 14.5837C37.1366 14.562 37.0812 14.5425 37.0259 14.5247L36.2608 14.2826C36.2343 14.2744 36.2079 14.2667 36.1814 14.2592L35.8181 14.1585C35.7724 14.1452 35.7242 14.1332 35.6737 14.1231L34.9543 13.9672C34.9134 13.9581 34.8725 13.9499 34.8316 13.9431L34.4683 13.8827C34.4322 13.8764 34.3937 13.8711 34.3576 13.8668L33.6719 13.7861C33.6238 13.7805 33.5757 13.7762 33.5275 13.7736L32.8298 13.7338C32.7841 13.7309 32.7384 13.7297 32.6927 13.7297H32.351C31.4608 13.7297 30.6475 14.2308 30.2481 15.0252C29.8463 15.8199 29.9281 16.7724 30.4575 17.4881L31.1143 18.3792L31.723 19.2748L32.3173 20.1779L32.8635 21.0635L33.9149 22.8938L34.3793 23.7718L34.8172 24.6651L35.231 25.5484L35.9793 27.3732L36.3209 28.2669L36.612 29.1093L36.8743 29.99L37.1245 30.8787L37.3483 31.7357L37.536 32.5967L37.702 33.4348L37.8319 34.2702L37.9426 35.0827L38.0172 35.8924L38.0749 36.7073L38.111 37.4921V38.2469L38.0749 38.9878L38.0172 39.7572L37.9474 40.4903L37.8439 41.1542L37.5552 42.5432L37.1462 43.9052C36.9272 44.6199 37.062 45.3961 37.5047 45.9969C37.9498 46.5974 38.65 46.952 39.3982 46.952H89.0127C89.7705 46.952 90.4803 46.5875 90.923 45.9728C91.3657 45.358 91.486 44.5676 91.2479 43.8486L91.0265 43.1881L90.8533 42.5439L90.6896 41.848L90.5477 41.1539L90.4442 40.49L90.3745 39.7568L90.3191 39.016L90.283 37.4649L90.3167 36.7068L90.3745 35.8924L90.4466 35.083L90.5597 34.2699L90.6896 33.4348L90.8557 32.596L91.0433 31.7357L91.2671 30.8787L91.5173 29.9898L91.7723 29.1312L92.422 27.3532L93.1606 25.5484L93.5648 24.6836L94.4863 22.8762L95.5281 21.0635L96.0743 20.1782L96.6686 19.2746L97.2773 18.3789L97.9341 17.4881C98.4635 16.7724 98.5429 15.8199 98.1435 15.0252Z" fill="#121212"/>
<path fill-rule="evenodd" clip-rule="evenodd" d="M38.7773 48.5686C38.7773 48.5686 44.417 47.6569 51.3801 48.8305C51.3801 48.8305 43.8637 51.032 38.7773 48.5686ZM51.7313 102.825C60.0417 106.622 69.5479 108.012 79.2104 106.269C85.5094 105.132 91.2862 102.769 96.3316 99.4708C81.602 100.832 59.9768 102.286 51.7313 102.825Z" fill="#C9BDAE"/>
<path fill-rule="evenodd" clip-rule="evenodd" d="M73.5032 37.1281L73.8329 37.1252C83.2693 37.1252 85.3577 41.9812 85.6464 42.8245C87.0491 42.8424 88.2978 42.8202 89.1231 42.7291L93.3119 42.2678L91.4954 46.0749C91.4954 46.0749 91.0262 47.1384 89.8569 48.2049C93.6079 49.0215 95.7781 50.5562 97.5152 51.9402C98.6148 52.8177 104.064 56.8248 104.064 56.8248L104.165 57.2955C104.165 57.2955 104.897 61.2324 102.491 63.6107C101.815 64.279 100.893 64.8689 99.6109 65.1854C101.601 66.6168 103.511 68.5522 105.207 71.1444L107.091 74.0248L103.725 74.7289L112.514 76.0957L108.934 80.3273C108.879 83.2671 108.727 86.2308 106.831 89.631L103.504 94.136L98.2876 101.198C98.2876 101.198 96.0091 104.281 93.0184 106.748C92.0247 107.567 90.9492 108.302 89.8497 108.871L86.3754 113.545C86.3754 113.545 81.2337 120.489 72.305 120.489C69.4924 120.489 66.5571 122.563 66.5571 122.563L60.3495 122.441C60.3495 122.441 53.4154 122.295 47.7011 119.331C43.5147 117.16 39.9995 113.556 39.665 107.746L39.5568 105.852C38.0337 105.369 35.8347 104.431 33.828 102.681L32.8632 101.76C30.6497 99.4279 28.8764 95.9403 28.8764 90.7502C28.8764 84.393 33.2145 81.0104 35.4521 79.6891C33.5249 77.8176 30.9095 74.4386 31.0755 69.9847L31.2368 65.6243L32.2737 66.3668C31.2849 64.2154 30.9408 61.1579 32.637 56.8544L33.8208 53.8473L36.2918 55.8901C35.6855 54.2149 35.339 52.1794 35.7961 49.9663C36.2389 47.8161 37.4154 45.4544 39.9634 43.1252L40.7044 42.4801L40.9763 42.2582L45.4828 38.652L45.4756 38.7057C45.8726 38.1437 46.3441 37.6087 46.9023 37.1132C48.3989 35.7861 50.9829 34.89 54.0097 34.4386C56.6058 34.0514 68.5613 34.0269 69.2831 33.9317C71.4389 33.7853 73.0028 33.5853 74.4031 33.3704L73.5032 37.1281ZM43.0214 36.1087C43.4737 35.5378 43.9862 34.9907 44.5685 34.4747C46.4572 32.7981 49.6668 31.5218 53.4924 30.9514C56.0957 30.5628 68.0969 30.5318 68.8235 30.4364C68.8957 30.4267 68.9703 30.4193 69.0449 30.4142C71.0756 30.2764 72.5504 30.088 73.8713 29.8854C75.031 29.7077 76.2028 30.1193 76.9967 30.9837C77.7185 31.7702 78.041 32.8373 77.887 33.8831C83.5628 34.7274 86.385 37.2977 87.7637 39.288C88.1342 39.2755 88.4638 39.2552 88.7381 39.2249L92.927 38.7636C94.1974 38.6236 95.4437 39.1837 96.1847 40.2272C96.9234 41.2705 97.0413 42.633 96.4903 43.7876L95.2777 46.3278C97.1135 47.2013 98.5017 48.2198 99.7071 49.1822C100.79 50.0451 106.15 53.9834 106.15 53.9834C106.846 54.4956 107.329 55.2467 107.51 56.0932L107.608 56.5639C107.616 56.5923 107.621 56.6207 107.625 56.6491C107.625 56.6491 108.508 62.0497 105.4 65.6525C106.36 66.6987 107.281 67.8801 108.152 69.2127L110.039 72.0933L110.07 72.148L113.053 72.6119C114.312 72.8078 115.368 73.669 115.813 74.8638C116.258 76.0589 116.022 77.4011 115.199 78.3743L112.418 81.6623C112.3 84.7158 111.87 87.8277 109.909 91.3481C109.834 91.4799 109.752 91.6068 109.663 91.728C109.663 91.728 106.333 96.2332 106.333 96.2322C106.333 96.2322 101.119 103.294 101.119 103.294C101.119 103.294 98.5859 106.725 95.256 109.47C94.296 110.261 93.271 110.984 92.2196 111.589L89.2049 115.645C89.2049 115.645 83.0382 124.014 72.305 124.014C70.4716 124.014 68.5853 125.444 68.5853 125.444C67.9718 125.877 67.238 126.103 66.4873 126.088L60.2798 125.966C60.2774 125.966 60.2773 125.966 60.2749 125.966C60.2749 125.966 52.4939 125.789 46.0819 122.462C40.9498 119.799 36.7129 115.35 36.1763 108.318C34.7062 107.649 33.0653 106.691 31.5135 105.339C31.475 105.304 31.4341 105.268 31.3956 105.231L30.4332 104.31C30.3923 104.27 30.3514 104.23 30.3129 104.189C27.6037 101.337 25.3564 97.0992 25.3564 90.7502C25.3564 85.2554 27.8804 81.4934 30.3922 79.1201C28.7586 76.7232 27.4184 73.5731 27.558 69.8537L27.7192 65.4931C27.736 65.0322 27.8419 64.5878 28.0271 64.1814C27.7264 61.8616 27.9983 59.0224 29.3601 55.5605L30.5462 52.5535C30.8494 51.7814 31.4124 51.1508 32.1246 50.76C32.1679 50.2664 32.2425 49.7639 32.3459 49.2547C32.9089 46.521 34.3502 43.4831 37.5886 40.5216C37.6103 40.5023 37.632 40.4835 37.6536 40.4645L38.3947 39.8196C38.4235 39.7946 38.4524 39.77 38.4813 39.7459L38.7531 39.5243C38.7628 39.5175 38.77 39.5108 38.7772 39.5043L43.0214 36.1087Z" fill="#121212"/>
<path fill-rule="evenodd" clip-rule="evenodd" d="M73.9341 36.7808L74.2662 36.7779C83.782 36.7779 85.8872 41.675 86.1808 42.5258C87.5955 42.5437 88.8539 42.5212 89.6864 42.4295L93.9113 41.9643L92.0779 45.8039C92.0779 45.8039 91.6039 46.8764 90.425 47.9517C94.2072 48.7753 96.3991 50.3231 98.1483 51.719C99.2599 52.6038 104.755 56.6451 104.755 56.6451L104.856 57.1198C104.856 57.1198 105.595 61.09 103.167 63.4888C102.484 64.1626 101.555 64.7576 100.261 65.0768C102.27 66.5205 104.197 68.4722 105.908 71.0863L107.806 73.9913L104.411 74.7012L113.275 76.0798L109.663 80.3475C109.608 83.3122 109.457 86.3012 107.546 89.73L104.187 94.2735L98.9278 101.396C98.9278 101.396 96.6325 104.505 93.613 106.993C92.6121 107.819 91.5293 108.56 90.4178 109.133L86.9146 113.848C86.9146 113.848 81.7297 120.85 72.7239 120.85C69.8897 120.85 66.9278 122.942 66.9278 122.942L60.6674 122.819C60.6674 122.819 53.6731 122.672 47.9131 119.683C43.6905 117.493 40.1441 113.858 39.8072 107.999L39.699 106.089C38.1615 105.602 35.9432 104.656 33.9197 102.891L32.9477 101.962C30.7149 99.6105 28.9272 96.0932 28.9272 90.8591C28.9272 84.4477 33.3038 81.0362 35.5606 79.7038C33.6142 77.8164 30.9772 74.4085 31.1456 69.9168L31.3068 65.5193L32.3534 66.268C31.3573 64.0983 31.0085 61.0149 32.7191 56.6747L33.9149 53.6423L36.4051 55.7024C35.794 54.013 35.4451 51.9602 35.9047 49.728C36.3498 47.5598 37.5384 45.1778 40.108 42.8289L40.8563 42.1782L41.1305 41.9544L45.6755 38.3177L45.6683 38.3719C46.0677 37.805 46.5441 37.2657 47.1071 36.7658C48.6157 35.4274 51.2214 34.5238 54.2746 34.0683C56.8924 33.6781 68.9489 33.6532 69.6755 33.5574C71.8506 33.4097 73.4289 33.2078 74.8412 32.991L73.9341 36.7808Z" fill="#121212"/>
<path d="M34.5717 102.175C36.4748 103.83 38.5681 104.715 39.99 105.167C40.3726 105.288 40.6397 105.633 40.6637 106.034L40.772 107.943C41.0463 112.694 43.5967 116.355 48.3558 118.824C53.8559 121.676 60.6192 121.85 60.6866 121.851L66.6439 121.969C67.4836 121.426 70.1085 119.883 72.7239 119.883C81.1473 119.883 86.0893 113.338 86.1374 113.272L89.643 108.556C89.732 108.438 89.8451 108.341 89.975 108.274C90.9783 107.755 91.9936 107.073 92.9993 106.246C95.8914 103.862 98.129 100.85 98.1506 100.82L106.73 89.2049C108.453 86.0851 108.641 83.3387 108.699 80.3294C108.701 80.1064 108.783 79.892 108.927 79.7219L111.422 76.7712L104.264 75.6578C103.802 75.586 103.458 75.1938 103.446 74.7263C103.434 74.2589 103.757 73.8494 104.214 73.7538L106.22 73.3342L105.099 71.6166C103.564 69.2725 101.748 67.3369 99.6977 65.8628C99.3921 65.6427 99.2405 65.2642 99.3127 64.8935C99.3849 64.5228 99.664 64.2274 100.03 64.1371C101.021 63.8928 101.825 63.4554 102.486 62.7999C104.527 60.7853 103.911 57.3319 103.906 57.2972L103.887 57.2068C102.715 56.3454 98.5211 53.2535 97.5467 52.4759C95.8914 51.1561 93.8222 49.6818 90.2204 48.8977C89.8667 48.8206 89.5852 48.5527 89.4914 48.2027C89.3975 47.8532 89.5058 47.4803 89.7753 47.2365C90.7714 46.3269 91.1924 45.4161 91.1972 45.4069L92.2896 43.1165L89.7921 43.3916C88.9933 43.4795 87.7735 43.5137 86.1687 43.4937C85.7596 43.4887 85.3987 43.2273 85.2664 42.8409C85.086 42.3194 83.255 37.7458 74.2661 37.7458L73.9413 37.7487C73.6406 37.7448 73.3614 37.6164 73.1762 37.3832C72.9909 37.1503 72.9236 36.8446 72.9934 36.5548L73.5684 34.1505C72.5506 34.2837 71.3188 34.4154 69.7621 34.5217C69.4445 34.5542 68.4893 34.5723 66.0231 34.6123C62.313 34.6727 56.1079 34.7734 54.4165 35.0256C51.4018 35.4756 49.0318 36.351 47.7494 37.4902C47.261 37.9226 46.8255 38.407 46.4574 38.9303C46.3491 39.0837 46.2024 39.1979 46.0388 39.2661L41.4769 42.919L40.7431 43.5593C38.6379 45.4833 37.3242 47.6299 36.8502 49.9234C36.4893 51.687 36.6433 53.5204 37.3145 55.3724C37.4637 55.7827 37.3194 56.2418 36.9633 56.4931C36.6072 56.745 36.126 56.7265 35.7916 56.4487L34.3239 55.2371L33.6189 57.03C32.2571 60.4861 32.1272 63.4582 33.2315 65.8636C33.4144 66.2622 33.3085 66.7346 32.9693 67.0141C32.7527 67.1933 32.4785 67.2646 32.2114 67.2256L32.1103 69.953C31.9612 73.9875 34.2685 77.1044 36.2318 79.0089C36.4484 79.2189 36.5542 79.5184 36.5206 79.8183C36.4845 80.1182 36.3112 80.3841 36.0514 80.5376C33.7512 81.8953 29.8944 85.0411 29.8944 90.8591C29.8944 95.1518 31.1527 98.6573 33.6333 101.278L34.5717 102.175ZM66.9254 123.91C66.9205 123.91 66.9133 123.91 66.9085 123.91L60.6481 123.787C60.3521 123.781 53.3602 123.6 47.4679 120.542C42.1362 117.776 39.1527 113.458 38.8424 108.054L38.7702 106.797C37.2159 106.239 35.1732 105.267 33.2845 103.621C33.2724 103.611 33.2628 103.601 33.2532 103.591L32.2812 102.662C32.2691 102.651 32.2571 102.64 32.2475 102.629C29.4036 99.6339 27.96 95.6739 27.96 90.8591C27.96 84.7934 31.658 81.2114 34.0472 79.5311C32.0334 77.3192 30.0243 74.0436 30.1783 69.8809L30.3419 65.4832C30.354 65.1553 30.532 64.8576 30.8087 64.6902C30.2601 62.2258 30.597 59.4204 31.8192 56.3196L33.015 53.287C33.1281 52.9989 33.3735 52.7826 33.6718 52.705C33.9726 52.6277 34.2902 52.6985 34.5284 52.8958L34.8027 53.1215C34.6631 51.9113 34.716 50.7116 34.9566 49.5327C35.5124 46.8308 37.0282 44.3349 39.4559 42.1141L40.221 41.4478C40.2282 41.4411 40.2378 41.4341 40.2451 41.4276L40.5193 41.2041L45.0475 37.5801C45.4637 37.0246 45.9401 36.5078 46.467 36.0415C48.4664 34.2661 51.7386 33.468 54.1326 33.111C55.9491 32.84 61.7524 32.7456 65.9918 32.6769C67.6977 32.649 69.3121 32.623 69.5551 32.5969C69.5768 32.5943 69.5912 32.5928 69.6105 32.5916C71.9058 32.4358 73.4697 32.2226 74.6944 32.0342C75.0144 31.9858 75.3344 32.0983 75.5533 32.3358C75.7723 32.5733 75.8565 32.9036 75.7819 33.217L75.1564 35.8244C83.2093 36.086 85.9762 39.8536 86.8207 41.5632C88.0382 41.5666 88.9621 41.5355 89.5804 41.4674L93.8054 41.0022C94.1543 40.9639 94.4959 41.1173 94.7004 41.404C94.9025 41.6904 94.9338 42.0645 94.7846 42.3815L92.9536 46.2144C92.9079 46.3156 92.677 46.7954 92.2126 47.4148C95.1239 48.2933 97.0775 49.6269 98.7521 50.9617C99.8348 51.825 105.272 55.8246 105.328 55.8648C105.518 56.0057 105.65 56.2119 105.701 56.4442L105.802 56.9192C105.84 57.1252 106.608 61.4492 103.846 64.1776C103.362 64.6565 102.813 65.0559 102.207 65.3738C103.889 66.8103 105.402 68.5471 106.716 70.5559L108.617 73.4611C108.79 73.7287 108.824 74.066 108.701 74.3616C108.696 74.3702 108.694 74.3787 108.689 74.3871L113.424 75.1233C113.768 75.1772 114.059 75.4135 114.179 75.7416C114.302 76.0697 114.237 76.4383 114.013 76.7055L110.623 80.7108C110.551 83.8686 110.289 86.7929 108.391 90.2015C108.369 90.2379 108.347 90.2726 108.323 90.3058L99.7049 101.971C99.6087 102.102 97.3013 105.206 94.2288 107.74C93.1846 108.6 92.1212 109.322 91.0625 109.888L87.6893 114.426C87.4679 114.726 82.1097 121.818 72.7239 121.818C70.2385 121.818 67.51 123.715 67.4836 123.734C67.32 123.848 67.1251 123.91 66.9254 123.91Z" fill="#121212"/>
<path fill-rule="evenodd" clip-rule="evenodd" d="M47.2393 54.6774C47.2393 54.6774 53.3024 61.7855 73.3926 64.8966L75.4426 69.2609C75.4426 69.2609 72.1824 69.5649 70.5439 69.5649C70.5439 69.5649 68.1475 71.9413 64.5217 71.6821C60.8982 71.4229 60.9632 68.6357 60.9199 66.5185H60.2727C60.2727 66.5185 60.7033 70.2562 58.74 70.2562C56.7767 70.2562 57.4456 66.4752 57.4456 66.4752H56.7767C56.7767 66.4752 56.0645 71.8982 52.4603 71.8765C48.8561 71.855 47.2802 70.321 47.0877 69.5649C47.0877 69.5649 44.7779 69.8024 42.728 69.284C42.728 69.284 44.2125 68.2036 45.146 65.1271C45.146 65.1271 49.27 64.8332 50.7039 62.2581C50.7039 62.2581 47.1117 62.4826 45.2495 62.3272C45.2495 62.3272 44.2245 59.1438 47.2393 54.6774ZM67.2044 76.1786C67.2044 76.1786 70.0362 76.1449 71.285 74.1192C71.285 74.1192 72.4639 74.2543 73.4095 74.8281C73.4095 74.8281 71.6892 78.3392 67.2044 76.1786ZM50.5139 76.1786C50.5139 76.1786 47.682 76.1449 46.4357 74.1192C46.4357 74.1192 45.2543 74.2543 44.3111 74.8281C44.3111 74.8281 46.0314 78.3392 50.5139 76.1786ZM57.0847 73.6302C58.1674 72.9082 59.4931 72.9082 60.5734 73.6302C61.8895 74.508 64.7551 78.39 69.0714 78.39C73.3854 78.39 75.0384 76.2971 75.0384 76.2971C75.51 81.6984 68.2606 80.5168 68.2606 80.5168C68.8693 81.6644 71.2296 82.1034 71.2296 82.1034C65.3277 83.3861 62.0579 78.0525 62.0579 78.0525C61.8895 77.3435 61.7547 76.3308 61.7547 76.3308C60.8429 79.8753 61.6537 84.534 61.6537 84.534C61.6537 84.534 62.26 82.0359 62.799 82.0022C63.3379 81.9682 65.1593 82.8123 64.1151 84.1628C63.1599 85.3944 60.6384 86.8159 58.8772 86.8159C57.116 86.8159 54.4982 85.3944 53.5454 84.1628C52.4988 82.8123 54.3202 81.9682 54.8591 82.0022C55.3981 82.0359 56.0068 84.534 56.0068 84.534C56.0068 84.534 56.8152 79.8753 55.9057 76.3308C55.9057 76.3308 55.771 77.3435 55.6026 78.0525C55.6026 78.0525 52.3304 83.3861 46.4309 82.1034C46.4309 82.1034 48.7911 81.6644 49.3975 80.5168C49.3975 80.5168 42.1481 81.6984 42.6197 76.2971C42.6197 76.2971 44.2727 78.39 48.589 78.39C52.903 78.39 55.771 74.508 57.0847 73.6302Z" fill="#C9BDAE"/>
<path fill-rule="evenodd" clip-rule="evenodd" d="M47.2393 54.6774C47.2393 54.6774 53.3024 61.7855 73.3926 64.8966L75.4426 69.2609C75.4426 69.2609 72.1824 69.5649 70.5439 69.5649C70.5439 69.5649 68.1475 71.9413 64.5217 71.6821C60.8982 71.4229 60.9632 68.6357 60.9199 66.5185H60.2727C60.2727 66.5185 60.7033 70.2562 58.74 70.2562C56.7767 70.2562 57.4456 66.4752 57.4456 66.4752H56.7767C56.7767 66.4752 56.0645 71.8982 52.4603 71.8765C48.8561 71.855 47.2802 70.321 47.0877 69.5649C47.0877 69.5649 44.7779 69.8024 42.728 69.284C42.728 69.284 44.2125 68.2036 45.146 65.1271C45.146 65.1271 49.27 64.8332 50.7039 62.2581C50.7039 62.2581 47.1117 62.4826 45.2495 62.3272C45.2495 62.3272 44.2245 59.1438 47.2393 54.6774ZM67.2044 76.1786C67.2044 76.1786 70.0362 76.1449 71.285 74.1192C71.285 74.1192 72.4639 74.2543 73.4095 74.8281C73.4095 74.8281 71.6892 78.3392 67.2044 76.1786ZM50.5139 76.1786C50.5139 76.1786 47.682 76.1449 46.4357 74.1192C46.4357 74.1192 45.2543 74.2543 44.3111 74.8281C44.3111 74.8281 46.0314 78.3392 50.5139 76.1786ZM57.0847 73.6302C58.1674 72.9082 59.4931 72.9082 60.5734 73.6302C61.8895 74.508 64.7551 78.39 69.0714 78.39C73.3854 78.39 75.0384 76.2971 75.0384 76.2971C75.51 81.6984 68.2606 80.5168 68.2606 80.5168C68.8693 81.6644 71.2296 82.1034 71.2296 82.1034C65.3277 83.3861 62.0579 78.0525 62.0579 78.0525C61.8895 77.3435 61.7547 76.3308 61.7547 76.3308C60.8429 79.8753 61.6537 84.534 61.6537 84.534C61.6537 84.534 62.26 82.0359 62.799 82.0022C63.3379 81.9682 65.1593 82.8123 64.1151 84.1628C63.1599 85.3944 60.6384 86.8159 58.8772 86.8159C57.116 86.8159 54.4982 85.3944 53.5454 84.1628C52.4988 82.8123 54.3202 81.9682 54.8591 82.0022C55.3981 82.0359 56.0068 84.534 56.0068 84.534C56.0068 84.534 56.8152 79.8753 55.9057 76.3308C55.9057 76.3308 55.771 77.3435 55.6026 78.0525C55.6026 78.0525 52.3304 83.3861 46.4309 82.1034C46.4309 82.1034 48.7911 81.6644 49.3975 80.5168C49.3975 80.5168 42.1481 81.6984 42.6197 76.2971C42.6197 76.2971 44.2727 78.39 48.589 78.39C52.903 78.39 55.771 74.508 57.0847 73.6302Z" fill="white"/>
<path fill-rule="evenodd" clip-rule="evenodd" d="M41.4935 56.6378C41.2409 57.2921 41.0099 57.9625 40.8198 58.6237C40.8198 58.6237 33.5368 51.0621 42.6051 43.8042C42.6051 43.8042 42.0324 48.3952 44.1906 51.0621C44.1906 51.0621 43.5362 52.163 42.7663 53.7411C42.1215 53.333 40.9281 52.3646 40.495 50.601C40.495 50.601 39.6625 53.7375 41.4935 56.6378ZM46.7194 48.8001C46.7194 48.8001 44.5275 42.2175 48.6755 38.5378C52.8234 34.8582 67.4207 36.2424 69.9831 35.9049C69.9831 35.9049 60.0366 40.192 57.5416 44.0068C57.5416 44.0068 65.9723 39.1456 74.2658 39.1456C82.5618 39.1456 83.9765 43.3991 83.9765 43.3991C83.9765 43.3991 80.3362 43.2639 76.424 44.4455C76.424 44.4455 86.5726 45.1545 89.9458 44.783C89.9458 44.783 88.495 47.8214 84.347 47.7539C80.2015 47.6862 75.144 50.4881 70.4908 50.4881C65.8376 50.4881 58.3188 49.8468 55.8574 48.0237C55.8574 48.0237 57.6788 52.8175 69.1073 53.2224C80.5383 53.6276 81.7846 55.7882 81.7846 55.7882C81.7846 55.7882 80.4036 52.885 77.1314 51.9734C77.1314 51.9734 81.5392 49.6016 85.5284 49.7456C95.8117 50.1168 96.8896 55.1804 100.701 56.092C100.701 56.092 98.3741 57.3073 94.4956 56.8346C94.4956 56.8346 98.3885 59.7716 102.541 57.611C102.541 57.611 103.675 62.9584 98.0637 62.9584C92.4529 62.9584 86.2285 56.9797 77.1579 63.0899L76.2484 60.693C76.2484 60.693 78.1034 60.423 79.4508 58.7013C79.4508 58.7013 61.8171 60.3893 51.0285 53.0637C51.0285 53.0637 50.7109 43.5626 56.6947 38.0768C56.6947 38.0768 50.273 40.2819 46.7194 48.8001ZM39.4893 66.9524C39.3907 67.7468 39.3112 68.498 39.2679 69.1223C39.2679 69.1223 31.0755 67.2995 34.9179 57.5436C34.9179 57.5436 37.8195 59.9405 40.4493 60.5817C40.4493 60.5817 40.2207 61.8951 39.9609 63.5806C38.9263 63.4016 37.3166 62.9116 36.3374 61.5689C36.3374 61.5689 36.1281 64.939 39.4893 66.9524ZM78.5461 66.9283L77.5741 64.1467C77.5741 64.1467 79.0057 65.1729 82.403 64.3086C85.8027 63.4445 96.9161 61.6621 103.927 72.3836C103.927 72.3836 99.6661 73.2749 97.0773 73.4098C97.0773 73.4098 91.6276 67.2793 78.5461 66.9283ZM39.0153 77.0574C38.9576 77.8687 38.8974 78.6771 38.8397 79.3779C38.8397 79.3779 33.2914 75.8112 33.5079 70.005C33.5079 70.005 35.6613 71.5474 39.3089 72.4763C39.3089 72.4763 39.2511 73.47 39.1645 74.7983C38.7458 74.5203 38.3488 74.1681 38.024 73.7217C38.024 73.7217 37.9206 75.375 39.0153 77.0574ZM78.6953 72.7969C78.6953 72.7969 78.9191 70.8276 78.806 69.8713C78.806 69.8713 85.1579 68.9711 91.1705 73.3597C91.1705 73.3597 89.0893 73.0783 86.5052 73.4719C86.5052 73.4719 92.7994 79.8298 107.859 78.8171C107.859 78.8171 103.814 83.5993 94.486 83.5993C85.1579 83.5993 80.0427 78.7046 79.3112 77.973L79.2559 75.7789C79.2559 75.7789 81.0532 77.4666 85.3816 78.3107C85.3816 78.3107 80.9425 75.3287 78.6953 72.7969ZM68.59 90.8731C68.59 90.8731 77.6391 98.5812 93.3167 92.3921C93.3167 92.3921 87.4725 93.1237 84.2701 91.1544C81.0676 89.1851 78.9311 87.8349 74.0421 88.0602C74.0421 88.0602 77.2445 89.2415 78.9864 91.0983C78.9864 91.0983 74.6051 91.8858 68.59 90.8731ZM39.778 84.6009C40.9906 86.1294 42.249 87.3425 42.249 87.3425C34.9443 96.6261 41.9699 104.221 41.9699 104.221C41.9699 104.221 31.292 102.674 31.292 90.8591C31.292 83.8262 37.7545 81.2241 37.7545 81.2241C37.8917 81.6464 38.101 82.093 38.3585 82.5447C32.1991 86.3643 33.6379 93.4612 33.6379 93.4612C34.8409 88.1726 38.2406 85.5457 39.778 84.6009ZM58.1383 89.6354C58.1383 89.6354 53.6992 87.4974 52.1257 85.7531C52.1257 85.7531 41.7293 88.0602 41.7293 96.3869C41.7293 104.714 55.8911 109.609 70.4451 107.133C70.4451 107.133 58.4752 106.345 52.631 99.1439C52.631 99.1439 52.0126 101.45 52.744 102.801C52.744 102.801 46.3392 101.676 46.3392 96.3869C46.3392 91.0983 50.7783 90.7606 50.7783 90.7606C50.7783 90.7606 49.5969 91.5483 49.147 94.2489C49.147 94.2489 52.2941 91.0983 58.1383 89.6354ZM56.2279 96.6119C56.2279 96.6119 57.8592 95.9369 58.7567 94.6428C58.7567 94.6428 70.7819 107.864 83.5386 97.1746C83.5386 97.1746 69.2084 98.3562 59.938 89.6915C59.938 89.6915 65.2745 87.3286 66.9612 85.5845C66.9612 85.5845 71.458 84.6843 75.6156 84.9656C79.7732 85.2468 92.9798 90.4231 105.455 88.6226C105.455 88.6226 99.3293 100.213 81.4598 101.619C81.4598 101.619 89.046 103.476 97.0267 99.9877C97.0267 99.9877 91.1248 107.977 86.0673 107.977C81.0099 107.977 79.8863 104.376 75.8971 104.376C71.9055 104.376 60.4986 104.939 56.2279 96.6119ZM55.0923 112.294C55.0923 112.294 65.0676 114.263 72.0932 111.59C79.1163 108.918 80.803 110.887 80.803 110.887C80.803 110.887 79.5374 110.817 78.1323 112.083C78.1323 112.083 82.1383 113.349 85.0183 112.434C85.0183 112.434 80.5215 118.483 72.7236 118.483C64.9281 118.483 58.5353 115.81 55.0923 112.294ZM42.1696 107.863C42.1696 107.863 46.5245 110.817 49.3323 110.887C49.3323 110.887 52.987 116.373 60.7128 120.452C60.7128 120.452 42.8721 120.1 42.1696 107.863Z" fill="white"/>
<g style="mix-blend-mode:darken">
<path fill-rule="evenodd" clip-rule="evenodd" d="M47.0707 40.6141C47.0707 40.6141 48.4157 46.3852 54.1131 46.1091C54.1131 46.1091 66.7928 40.0374 83.7913 43.1652L80.3002 44.0851L77.0833 44.4532C77.0833 44.4532 66.7014 45.4652 62.2911 46.5692C62.2911 46.5692 75.2475 49.605 88.0187 47.4892L70.4692 51.5369L57.4214 49.4209L55.9513 48.0411C55.9513 48.0411 56.3194 56.5046 81.7703 57.4246C81.7703 57.4246 98.9516 62.9444 103.456 58.1605L101.249 63.4043L98.0349 64.2322L85.0785 62.0244L77.6343 63.5883L69.182 62.4843L59.2596 58.6206L50.2539 54.8487L46.486 52.0888L42.4439 58.2525V64.1402L41.0653 72.6958L40.0548 80.2396L36.0126 79.0435L29.7642 73.7078L30.6833 56.9647L34.2659 45.2812L41.5248 38.9334L47.0707 40.6141ZM77.692 74.6434C77.692 74.6434 94.8373 81.7608 108.638 78.0973L105.501 85.6337L92.643 85.215L80.7236 81.8656L77.17 79.4581L77.692 74.6434ZM54.065 94.2167L56.3651 98.8221C56.3651 98.8221 64.625 100.392 69.9567 99.7642L62.0097 94.6353L56.3651 92.4372L54.065 94.2167ZM68.4914 95.1855C68.4914 95.1855 87.8671 100.33 103.282 93.2562L95.896 103.975C95.896 103.975 84.3351 106.761 74.4872 100.009L68.169 97.4362L68.4914 95.1855ZM52.0343 107.976L44.4482 105.73L36.5011 103.742L29.2878 103.218L27.5122 92.542L31.2752 85.3198C31.2752 85.3198 28.453 96.7287 40.6827 95.2634C40.6827 95.2634 45.4924 106.568 72.779 106.358L71.9417 108.557L57.9338 109.22L60.4842 109.757L70.0121 109.329L79.3257 108.578L87.4605 112.437C87.4605 112.437 82.6027 118.124 74.0325 119.709C65.0124 121.377 51.9982 118.822 40.9257 113.467L39.0731 106.435L50.314 107.614L52.0343 107.976Z" fill="#9E8558"/>
</g>
<path fill-rule="evenodd" clip-rule="evenodd" d="M79.9947 16.5999L79.7733 16.7488L79.5111 16.9165L79.2152 17.1398L78.8975 17.3819L78.1733 17.9774L77.3168 18.6663L76.2942 19.448L75.1418 20.3044L74.4921 20.751L73.804 21.2164L73.0798 21.6818L72.2979 22.1658L72.204 22.2217L72.1294 22.259L72.038 22.2776H71.9442L71.8527 22.259L71.7589 22.2217L71.6651 22.1658L71.5736 22.1101L71.499 22.0357L71.4052 21.961L71.3306 21.868L71.256 21.7748L71.1454 21.5515L71.0515 21.3282L70.9216 20.8813L70.7724 20.4347L70.6064 20.0064L70.438 19.5784L70.2527 19.1503L70.0482 18.7222L69.8437 18.2939L69.6392 17.8844L69.1941 17.0839L68.7273 16.3022L68.2437 15.5574L67.7433 14.8316L67.2404 14.1614L66.7399 13.5098L66.2371 12.9143L65.7342 12.3557L65.2699 11.8531L64.8248 11.3877L64.3965 10.9968L64.0236 10.6431L63.6338 10.9968L63.2248 11.3877L62.7797 11.8531L62.296 12.3557L61.8124 12.9143L61.3096 13.5098L60.8067 14.1614L60.3063 14.8316L59.8034 15.5574L59.3198 16.3022L58.8555 17.0839L58.4103 17.8844L58.1866 18.2939L57.9821 18.7222L57.7968 19.1503L57.6091 19.5784L57.4431 20.0064L57.2747 20.4347L57.1255 20.8813L56.9956 21.3282L56.9042 21.5515L56.7742 21.7748L56.7165 21.868L56.6251 21.961L56.5505 22.0357L56.4566 22.1101L56.3821 22.1658L56.2906 22.2217L56.1968 22.259L56.103 22.2776H56.0115L55.9177 22.259L55.8239 22.2217L55.7517 22.1658L54.9697 21.6818L54.2455 21.2164L53.5574 20.751L52.9054 20.3044L51.7336 19.448L50.7303 18.6663L49.857 17.9774L49.1327 17.3819L48.8151 17.1398L48.5361 16.9165L48.2762 16.7488L48.0356 16.5999L47.9057 16.9165L47.7733 17.2516L47.6434 17.6237L47.5327 18.0147L47.309 18.8523L47.0876 19.7646L46.8831 20.751L46.6954 21.7748L46.5294 22.873L46.3418 23.9901L46.195 25.1442L46.0266 26.3356L45.8774 27.5269L45.7114 28.7369L45.5622 29.9469L45.4131 31.1383L45.247 32.3295L45.0786 33.4651H64.0236H82.9709L82.8025 32.3295L82.6365 31.1383L82.4873 29.9469L82.3189 28.7369L82.1697 27.5269L82.023 26.3356L81.8545 25.1442L81.6861 23.9901L81.5201 22.873L81.3517 21.7748L81.1472 20.751L80.9619 19.7646L80.7382 18.8523L80.5168 18.0147L80.3845 17.6237L80.2545 17.2516L80.1439 16.9165L79.9947 16.5999Z" fill="white"/>
<path fill-rule="evenodd" clip-rule="evenodd" d="M32.6923 16.0871L33.0339 16.1073L33.3972 16.1276L33.7389 16.1678L34.0805 16.2083L34.4438 16.2685L34.8071 16.3494L35.1897 16.4299L35.5506 16.5306L35.9331 16.6517L36.3157 16.7727L36.7199 16.9338L37.1217 17.0952L37.5235 17.2766L37.947 17.4582L38.3512 17.6799L39.7202 18.3854L40.9689 19.071L41.5728 19.4136L42.196 19.7766L42.7999 20.1596L43.4447 20.5831L44.1088 21.0668L44.8138 21.591L45.5596 22.1757L46.3849 22.841L47.2703 23.607L48.2182 24.454L49.2649 25.4015L50.4125 26.4701L50.5521 26.5708L50.694 26.6312L50.836 26.6515H50.9756L51.1175 26.6112L51.257 26.5505L51.399 26.4701L51.5386 26.3489L51.6805 26.228L51.8224 26.0668L51.9427 25.9054L52.0438 25.724L52.1449 25.5426L52.2435 25.341L52.3037 25.1394L52.3662 24.9175L52.6068 24.0708L52.8474 23.204L53.1097 22.3571L53.4129 21.4903L53.7136 20.6031L54.0576 19.7364L54.3993 18.8694L54.7602 18.0024L55.1235 17.1354L55.5277 16.2685L55.9103 15.4217L56.3313 14.575L56.7355 13.7485L57.1566 12.922L57.5801 12.1155L58.0228 11.3292L58.4462 10.5632L58.8889 9.81712L59.3124 9.09131L59.7551 8.38573L60.602 7.03504L61.4056 5.82528L61.8098 5.26086L62.1924 4.73668L62.5749 4.23273L62.9358 3.78901L63.2799 3.36551L63.6023 2.98274L63.9031 2.65994L64.2062 2.35762L64.4877 2.65994L64.7885 2.98274L65.1109 3.36551L65.4742 3.78901L65.8158 4.23273L66.1984 4.73668L66.581 5.26086L66.9852 5.82528L67.8104 7.03504L68.6549 8.38573L69.0784 9.09131L69.5019 9.81712L69.9446 10.5632L70.368 11.3292L70.8107 12.1155L71.2318 12.922L71.6552 13.7485L72.0595 14.575L72.4805 15.4217L72.8631 16.2685L73.2673 17.1354L73.6282 18.0024L73.9915 18.8694L74.3331 19.7364L74.6772 20.6031L74.978 21.4903L75.2811 22.3571L75.5434 23.204L75.784 24.0708L76.0246 24.9175L76.0847 25.1394L76.1473 25.341L76.2459 25.5426L76.347 25.724L76.448 25.9054L76.59 26.0668L76.7103 26.228L76.8498 26.3489L76.9918 26.4701L77.1337 26.5505L77.2733 26.6112L77.4153 26.6515H77.5548L77.6967 26.6312L77.8387 26.5708L77.9783 26.4701L79.1259 25.4015L80.1725 24.454L81.1205 23.607L82.0059 22.841L82.8312 22.1757L83.5771 21.591L84.282 21.0668L84.9461 20.5831L85.5909 20.1596L86.214 19.7766L86.818 19.4136L87.4219 19.071L88.6706 18.3854L90.0396 17.6799L90.4631 17.4582L90.8649 17.2766L91.2691 17.0952L91.6709 16.9338L92.0751 16.7727L92.4576 16.6517L92.8402 16.5306L93.2011 16.4299L93.5837 16.3494L93.947 16.2685L94.3103 16.2083L94.6519 16.1678L95.0128 16.1276L95.3569 16.1073L95.6986 16.0871H96.0402L95.3569 17.0145L94.7121 17.9622L94.0889 18.9096L93.5043 19.8573L92.9605 20.8047L92.4168 21.7524L91.9331 22.6998L91.4495 23.6475L91.0068 24.595L90.605 25.5629L90.2225 26.5103L89.8784 27.4577L89.5367 28.3852L89.2552 29.3328L88.993 30.2603L88.7524 31.1877L88.5503 32.1149L88.3698 33.0221L88.2279 33.9293L88.1076 34.8165L88.0258 35.7035L87.9656 36.5705L87.9271 37.4374L87.9464 38.3044L87.9656 39.1309L88.0258 39.9574L88.1076 40.7842L88.2279 41.5704L88.3891 42.3567L88.5695 43.1228L88.7716 43.8688L89.0122 44.5944H64.2062H39.3978L39.6191 43.8688L39.8405 43.1228L40.0017 42.3567L40.1629 41.5704L40.2832 40.7842L40.365 39.9574L40.4252 39.1309L40.4637 38.3044V37.4374L40.4252 36.5705L40.365 35.7035L40.2832 34.8165L40.1629 33.9293L40.021 33.0221L39.8405 32.1149L39.6384 31.1877L39.3978 30.2603L39.1355 29.3328L38.8541 28.3852L38.5316 27.4577L38.1683 26.5103L37.7858 25.5629L37.384 24.595L36.9413 23.6475L36.4769 22.6998L35.974 21.7524L35.4303 20.8047L34.8865 19.8573L34.3019 18.9096L33.6787 17.9622L33.0339 17.0145L32.3506 16.0871H32.6923Z" fill="#121212"/>
<path fill-rule="evenodd" clip-rule="evenodd" d="M37.3242 20.341L38.1495 20.6636L38.9555 20.9864L39.699 21.3289L40.4039 21.6717L41.068 22.0145L41.7128 22.3773L42.2974 22.7403L42.8604 23.1031L43.4042 23.4661L43.9095 23.8289L44.3714 24.2119L44.8334 24.5747L45.2568 24.958L45.661 25.341L46.0436 25.7038L46.4045 26.0868L47.0902 26.8128L47.6941 27.5384L48.2788 28.244L48.8418 28.9296L49.3856 29.5949L49.9486 30.2198L50.2301 30.5021L50.514 30.8044L50.8147 31.0665L51.1179 31.3286L51.2382 31.4093L51.3585 31.4498L51.4788 31.4698H51.6015L51.7218 31.4498L51.8421 31.4093L51.9624 31.3286L52.0827 31.2482L52.1837 31.1472L52.304 31.0465L52.4051 30.9254L52.5062 30.7845L52.588 30.6433L52.6674 30.5021L52.7275 30.361L52.7684 30.1998L52.9705 29.5747L53.1702 28.9093L53.4132 28.224L53.6947 27.4982L54.2794 25.9659L54.9435 24.3531L55.6677 22.6998L56.4544 21.0064L57.2797 19.3129L58.105 17.6596L58.9495 16.0266L59.7964 14.4743L60.6217 13.0024L61.406 11.672L61.7886 11.0671L62.1519 10.4825L62.5152 9.95828L62.8568 9.47433L63.1792 9.03084L63.48 8.64782L63.7639 8.32526L64.0238 8.04294L64.286 8.32526L64.5675 8.64782L64.8707 9.03084L65.1931 9.47433L65.5347 9.95828L65.8764 10.4825L66.2397 11.0671L66.6222 11.672L67.4283 13.0024L68.2535 14.4743L69.0788 16.0266L69.9233 17.6596L70.7702 19.3129L71.5762 21.0064L72.3606 22.6998L73.0848 24.3531L73.7513 25.9659L74.3552 27.4982L74.615 28.224L74.8581 28.9093L75.0794 29.5747L75.2598 30.1998L75.32 30.361L75.3825 30.5021L75.4619 30.6433L75.5438 30.7845L75.6424 30.9254L75.7434 31.0465L75.8445 31.1472L75.9648 31.2482L76.0851 31.3286L76.2078 31.4093L76.3281 31.4498L76.4484 31.4698H76.5687L76.6914 31.4498L76.8117 31.4093L76.9128 31.3286L77.2135 31.0665L77.5167 30.8044L77.7982 30.5021L78.0989 30.2198L78.6427 29.5949L79.1865 28.9296L79.7519 28.244L80.3341 27.5384L80.9597 26.8128L81.643 26.0868L82.0063 25.7038L82.3889 25.341L82.7907 24.958L83.2141 24.5747L83.6568 24.2119L84.1404 23.8289L84.6433 23.4661L85.1678 23.1031L85.7308 22.7403L86.3347 22.3773L86.9603 22.0145L87.6244 21.6717L88.3486 21.3289L89.0944 20.9864L89.8788 20.6636L90.7257 20.341L90.1819 20.9864L89.6574 21.6315L89.1738 22.2766L88.7311 22.9217L88.2884 23.5668L87.8866 24.1917L87.5233 24.8168L87.1624 25.4417L86.84 26.0668L86.5368 26.6917L86.2553 27.3168L86.0123 27.9417L85.7717 28.5466L85.5504 29.1714L85.3699 29.7763L85.1871 30.4012L85.0475 31.0061L84.9055 31.611L84.8045 32.2358L84.7034 32.8407L84.6241 33.4658L84.5639 34.0705L84.5038 34.6956L84.4821 35.3205L84.4628 35.9456V36.5705V37.1956L84.4821 37.8205L84.523 38.4456L84.5639 39.0907L84.6048 39.7358L84.6842 40.3607H43.3657L43.4259 39.7358L43.486 39.0907L43.5245 38.4456L43.5462 37.8205L43.5654 37.1956L43.5871 36.5705V35.9456L43.5654 35.3205L43.5245 34.6956L43.486 34.0705L43.4042 33.4658L43.344 32.8407L43.243 32.2358L43.1227 31.611L42.9807 31.0061L42.8412 30.4012L42.6607 29.7763L42.4779 29.1714L42.2565 28.5466L42.0352 27.9417L41.7729 27.3168L41.4914 26.6917L41.1907 26.0668L40.8683 25.4417L40.5242 24.8168L40.1417 24.1917L39.7398 23.5668L39.3164 22.9217L38.8544 22.2766L38.3708 21.6315L37.868 20.9864L37.3242 20.341Z" fill="#9E8558"/>
<path fill-rule="evenodd" clip-rule="evenodd" d="M64.6899 9.21223L65.455 10.4825L66.1985 11.7325L66.9444 13.0024L67.6493 14.2727L68.3543 15.5629L69.0592 16.8534L69.7426 18.1838L70.4283 19.5145L71.0923 20.8854L71.7371 22.2966L72.4012 23.728L73.046 25.2201L73.6908 26.7321L74.3332 28.3045L74.9588 29.9377L75.6036 31.611L75.7239 31.7721L75.8442 31.8933L75.9645 31.994L76.0656 32.0544L76.1859 32.1149L76.2869 32.1554H76.4072H76.5083L76.6093 32.1351L76.7104 32.0949L76.8115 32.0544L76.9125 31.994L77.1122 31.8126L77.3335 31.611L77.8172 31.107L78.3826 30.5424L78.7026 30.2805L79.0659 30.0182L79.268 29.8972L79.4677 29.7763L79.6698 29.6756L79.9128 29.5747L79.6698 29.8368L79.4484 30.1593L79.2078 30.5221L78.9648 30.9054L78.462 31.7521L77.9182 32.6191L77.6367 33.0423L77.3552 33.4456L77.0521 33.8489L76.7513 34.2116L76.4289 34.5342L76.0848 34.8165L75.9236 34.9375L75.7648 35.0586L75.582 35.1593L75.4015 35.2398L75.1585 35.3205L74.9179 35.4012L74.6966 35.4616L74.4752 35.5019L74.2731 35.5221L74.0926 35.5423L73.9122 35.5221L73.7293 35.5019L73.5681 35.4819L73.4069 35.4214L73.2674 35.3609L73.1254 35.2802L72.9859 35.1995L72.8632 35.0986L72.7429 34.9779L72.6418 34.8368L72.5408 34.7158L72.4421 34.5544L72.3411 34.393L72.2593 34.2319L72.098 33.8489L71.9585 33.4254L71.8382 32.9819L71.7371 32.4982L71.6361 31.994L71.535 31.4498L71.2728 29.9982L70.972 28.5666L70.6689 27.1352L70.3056 25.7038L69.9447 24.2926L69.5404 22.9015L69.1387 21.4903L68.6959 20.1194L68.2316 18.7282L67.7696 17.3573L67.286 15.9864L66.7832 14.6355L66.2803 13.2645L65.7558 11.9139L65.2313 10.5632L64.6899 9.21223Z" fill="#121212"/>
<path fill-rule="evenodd" clip-rule="evenodd" d="M38.6113 21.0468L39.5184 21.5305L40.3846 22.0347L41.2291 22.5789L42.0351 23.1436L42.8219 23.728L43.587 24.3531L44.3304 24.978L45.057 25.6433L45.7596 26.3087L46.4453 27.0142L47.1094 27.7201L47.7734 28.4456L48.4182 29.2119L49.0438 29.9779L49.667 30.744L50.2925 31.5505L50.4128 31.6714L50.5524 31.7721L50.7136 31.8528L50.8964 31.9133L51.0961 31.9737L51.2982 31.994H51.5003H51.7217L51.943 31.9737L52.1644 31.9335L52.3858 31.8933L52.6071 31.8326L53.0306 31.7117L53.4324 31.5505L53.2519 31.9335L53.0498 32.2763L52.8694 32.5989L52.6672 32.8809L52.4868 33.123L52.2847 33.3447L52.0826 33.5263L51.8829 33.6875L51.7001 33.8086L51.5003 33.9293L51.2982 33.9898L51.0961 34.0505L50.9157 34.0705L50.7136 34.0907L50.5139 34.0705L50.331 34.0302L50.1313 33.9698L49.9485 33.8891L49.7488 33.8086L49.5659 33.6875L49.3855 33.5665L49.205 33.4254L49.0222 33.2842L48.8417 33.1028L48.5 32.74L48.1776 32.3368L47.8745 31.9133L47.5737 31.4498L47.0901 30.6835L46.6065 29.9577L46.1037 29.2521L45.5791 28.5666L45.0354 27.9014L44.4916 27.2561L43.9479 26.6312L43.3656 26.0061L42.2155 24.7763L41.0294 23.5466L39.8216 22.3168L38.6113 21.0468Z" fill="#121212"/>
<path fill-rule="evenodd" clip-rule="evenodd" d="M90.0664 21.0468L89.744 21.5306L89.4024 22.0145L89.1016 22.5185L88.7792 23.0224L88.476 23.5466L88.1945 24.0508L87.913 24.595L87.6315 25.1394L87.3693 25.6838L87.107 26.228L86.8664 26.7926L86.6451 27.3773L86.4237 27.9619L86.2216 28.5466L86.0195 29.1312L85.839 29.7361L85.6778 30.361L85.5359 30.9861L85.3963 31.611L85.2544 32.2561L85.1533 32.9012L85.0523 33.5465L84.9729 34.2117L84.8911 34.8972L84.8526 35.5626L84.8117 36.2479L84.7924 36.9535V37.6591L84.8117 38.3649L84.8309 39.0907L84.8911 39.8163L84.9536 40.5423L82.3551 40.5221H79.7566H77.1389L74.5019 40.5423L71.8649 40.5623L69.2255 40.6028L66.5885 40.643L63.9299 40.6632L61.2712 40.7035L58.6342 40.744L55.9756 40.7639L53.3386 40.8044H50.7208L48.1031 40.8244L43.1299 41.0284L43.4258 39.7358L57.6887 38.5867L59.9431 38.3447L62.2384 38.1028L64.5747 37.8809L66.9302 37.6995L69.3265 37.5381L71.7422 37.3972L74.1987 37.2763L76.6769 37.1956L79.1744 37.1351L79.3957 36.4496L79.6171 35.7642L79.8577 35.0986L80.1007 34.4335L80.3606 33.7884L80.6445 33.143L80.926 32.5182L81.2267 31.9133L81.5299 31.3086L81.8306 30.7038L82.153 30.1394L82.4971 29.5747L82.8387 29.0103L83.1804 28.4659L83.522 27.9417L83.8853 27.4175L84.2679 26.9136L84.6312 26.4296L85.0138 25.9456L85.3747 25.4822L85.7572 25.0384L86.1615 24.595L86.544 24.1717L86.9266 23.7685L87.3284 23.3854L87.7109 23.0024L88.1151 22.6394L88.5169 22.2966L88.8995 21.954L89.3013 21.6315L89.6839 21.3289L90.0664 21.0468Z" fill="white"/>
</g>
<defs>
<clipPath id="clip0_134_2">
<rect width="128" height="198.737" fill="white"/>
</clipPath>
</defs>
</svg>
