<svg width="803" height="171" viewBox="0 0 803 171" fill="none" xmlns="http://www.w3.org/2000/svg">
<path d="M70.512 15.032V28.584H43.408V137H27.568V28.584H0.464V15.032H70.512ZM83.1455 137V3.06399L98.2815 0.423996V45.128C100.511 44.424 102.916 43.8373 105.498 43.368C108.196 42.8987 110.895 42.664 113.594 42.664C117.466 42.664 121.103 43.3093 124.506 44.6C127.908 45.7733 130.842 47.8267 133.306 50.76C135.887 53.6933 137.882 57.6827 139.29 62.728C140.815 67.656 141.578 73.816 141.578 81.208V137H126.442V82.44C126.442 73.288 125.268 66.6 122.922 62.376C120.575 58.152 116.175 56.04 109.722 56.04C106.319 56.04 102.506 56.6267 98.2815 57.8V137H83.1455ZM179.668 137H164.532V44.6H179.668V137ZM172.1 28.232C169.401 28.232 167.054 27.352 165.06 25.592C163.182 23.7147 162.244 21.2507 162.244 18.2C162.244 15.1493 163.182 12.744 165.06 10.984C167.054 9.10666 169.401 8.16799 172.1 8.16799C174.798 8.16799 177.086 9.10666 178.964 10.984C180.958 12.744 181.956 15.1493 181.956 18.2C181.956 21.2507 180.958 23.7147 178.964 25.592C177.086 27.352 174.798 28.232 172.1 28.232ZM205.045 46.536C208.095 45.2453 211.322 44.248 214.725 43.544C218.127 42.7227 221.823 42.312 225.813 42.312C234.026 42.312 240.714 44.8933 245.877 50.056C251.039 55.1013 253.621 63.0213 253.621 73.816V135.064C249.397 136.237 245.055 137.176 240.597 137.88C236.255 138.584 231.973 138.936 227.749 138.936C223.525 138.936 219.535 138.408 215.781 137.352C212.143 136.296 208.917 134.595 206.101 132.248C203.402 129.901 201.231 126.968 199.589 123.448C197.946 119.811 197.125 115.411 197.125 110.248C197.125 105.437 197.829 101.272 199.237 97.752C200.762 94.1147 202.815 91.1227 205.397 88.776C207.978 86.312 211.029 84.4933 214.549 83.32C218.069 82.0293 221.882 81.384 225.989 81.384C229.861 81.384 234.143 81.8533 238.837 82.792V74.344C238.837 67.5387 237.487 62.7867 234.789 60.088C232.207 57.3893 228.453 56.04 223.525 56.04C220.826 56.04 218.245 56.3333 215.781 56.92C213.434 57.3893 210.911 58.2107 208.213 59.384L205.045 46.536ZM212.261 110.072C212.261 115.469 213.669 119.459 216.485 122.04C219.301 124.621 223.29 125.912 228.453 125.912C231.621 125.912 235.082 125.501 238.837 124.68V95.288C235.317 94.3493 231.855 93.88 228.453 93.88C226.223 93.88 224.111 94.1733 222.117 94.76C220.122 95.2293 218.362 96.1093 216.837 97.4C215.429 98.5733 214.314 100.216 213.493 102.328C212.671 104.323 212.261 106.904 212.261 110.072ZM331.341 134.36C331.341 140.931 330.461 146.445 328.701 150.904C327.059 155.48 324.771 159.176 321.837 161.992C318.904 164.808 315.443 166.861 311.453 168.152C307.581 169.443 303.416 170.088 298.957 170.088C295.203 170.088 291.448 169.677 287.693 168.856C283.939 168.035 280.477 166.803 277.309 165.16L280.477 152.488C282.589 153.661 285.171 154.717 288.221 155.656C291.272 156.595 294.44 157.064 297.725 157.064C303.475 157.064 307.992 155.421 311.277 152.136C314.563 148.851 316.205 143.219 316.205 135.24V130.84C314.328 131.661 312.333 132.365 310.221 132.952C308.109 133.421 305.704 133.656 303.005 133.656C291.976 133.656 283.88 129.901 278.717 122.392C273.672 114.765 271.149 104.029 271.149 90.184C271.149 82.792 271.795 76.1627 273.085 70.296C274.493 64.312 276.605 59.2667 279.421 55.16C282.355 50.936 286.109 47.768 290.685 45.656C295.261 43.4267 300.835 42.312 307.405 42.312C311.747 42.312 315.971 42.7813 320.077 43.72C324.301 44.5413 328.056 45.656 331.341 47.064V134.36ZM316.205 56.92C314.563 56.4507 312.979 56.1573 311.453 56.04C309.928 55.8053 308.52 55.688 307.229 55.688C300.189 55.688 295.027 58.3867 291.741 63.784C288.573 69.1813 286.989 77.9813 286.989 90.184C286.989 101.213 288.573 109.016 291.741 113.592C294.909 118.051 299.427 120.28 305.293 120.28C307.288 120.28 309.165 120.045 310.925 119.576C312.803 119.107 314.563 118.461 316.205 117.64V56.92ZM414.377 90.888C414.377 98.1627 413.732 104.792 412.441 110.776C411.151 116.643 409.156 121.688 406.457 125.912C403.876 130.136 400.532 133.421 396.425 135.768C392.436 138.115 387.684 139.288 382.169 139.288C376.655 139.288 371.844 138.115 367.737 135.768C363.631 133.421 360.228 130.136 357.529 125.912C354.948 121.688 353.012 116.643 351.721 110.776C350.431 104.792 349.785 98.1627 349.785 90.888C349.785 83.7307 350.431 77.16 351.721 71.176C353.012 65.192 354.948 60.088 357.529 55.864C360.228 51.5227 363.631 48.1787 367.737 45.832C371.844 43.4853 376.655 42.312 382.169 42.312C387.684 42.312 392.436 43.4853 396.425 45.832C400.532 48.1787 403.876 51.5227 406.457 55.864C409.156 60.088 411.151 65.192 412.441 71.176C413.732 77.16 414.377 83.7307 414.377 90.888ZM398.537 90.888C398.537 85.7253 398.244 81.032 397.657 76.808C397.071 72.4667 396.132 68.7707 394.841 65.72C393.551 62.552 391.849 60.1467 389.737 58.504C387.625 56.744 385.103 55.864 382.169 55.864C379.119 55.864 376.537 56.744 374.425 58.504C372.431 60.1467 370.729 62.552 369.321 65.72C368.031 68.7707 367.092 72.4667 366.505 76.808C365.919 81.032 365.625 85.7253 365.625 90.888C365.625 96.0507 365.919 100.803 366.505 105.144C367.092 109.368 368.031 113.005 369.321 116.056C370.729 119.107 372.431 121.512 374.425 123.272C376.537 124.915 379.119 125.736 382.169 125.736C385.103 125.736 387.625 124.915 389.737 123.272C391.849 121.512 393.551 119.107 394.841 116.056C396.132 113.005 397.071 109.368 397.657 105.144C398.244 100.803 398.537 96.0507 398.537 90.888ZM480.061 126.088C486.397 126.088 491.267 124.328 494.669 120.808C498.189 117.288 499.949 112.536 499.949 106.552C499.949 103.384 499.421 100.568 498.365 98.104C497.309 95.64 495.901 93.4107 494.141 91.416C492.499 89.4213 490.563 87.6027 488.333 85.96C486.104 84.3173 483.816 82.6747 481.469 81.032C478.771 79.1547 475.955 77.16 473.021 75.048C470.088 72.936 467.389 70.472 464.925 67.656C462.579 64.84 460.643 61.5547 459.117 57.8C457.592 54.0453 456.829 49.6453 456.829 44.6C456.829 39.672 457.651 35.2133 459.293 31.224C461.053 27.2347 463.4 23.832 466.333 21.016C469.384 18.2 472.963 16.0293 477.069 14.504C481.293 12.9787 485.811 12.216 490.621 12.216C495.315 12.216 499.656 12.8027 503.645 13.976C507.635 15.1493 510.979 16.5573 513.677 18.2L508.749 30.696C506.285 29.0533 503.587 27.8213 500.653 27C497.837 26.0613 494.845 25.592 491.677 25.592C485.928 25.592 481.293 27.176 477.773 30.344C474.371 33.3947 472.669 37.912 472.669 43.896C472.669 47.1813 473.197 50.056 474.253 52.52C475.427 54.984 476.893 57.2133 478.653 59.208C480.531 61.2027 482.643 63.0213 484.989 64.664C487.453 66.3067 490.035 68.008 492.733 69.768C495.432 71.528 498.189 73.464 501.005 75.576C503.821 77.688 506.344 80.152 508.573 82.968C510.92 85.6667 512.797 88.8933 514.205 92.648C515.731 96.2853 516.493 100.627 516.493 105.672C516.493 110.248 515.789 114.589 514.381 118.696C512.973 122.803 510.744 126.44 507.693 129.608C504.76 132.659 501.005 135.123 496.429 137C491.971 138.76 486.691 139.64 480.589 139.64C474.957 139.64 470.029 138.995 465.805 137.704C461.581 136.413 457.827 134.712 454.541 132.6L459.469 119.928C462.52 121.805 465.629 123.331 468.797 124.504C472.083 125.56 475.837 126.088 480.061 126.088ZM593.568 90.888C593.568 98.1627 592.922 104.792 591.632 110.776C590.341 116.643 588.346 121.688 585.648 125.912C583.066 130.136 579.722 133.421 575.616 135.768C571.626 138.115 566.874 139.288 561.36 139.288C555.845 139.288 551.034 138.115 546.928 135.768C542.821 133.421 539.418 130.136 536.72 125.912C534.138 121.688 532.202 116.643 530.912 110.776C529.621 104.792 528.976 98.1627 528.976 90.888C528.976 83.7307 529.621 77.16 530.912 71.176C532.202 65.192 534.138 60.088 536.72 55.864C539.418 51.5227 542.821 48.1787 546.928 45.832C551.034 43.4853 555.845 42.312 561.36 42.312C566.874 42.312 571.626 43.4853 575.616 45.832C579.722 48.1787 583.066 51.5227 585.648 55.864C588.346 60.088 590.341 65.192 591.632 71.176C592.922 77.16 593.568 83.7307 593.568 90.888ZM577.728 90.888C577.728 85.7253 577.434 81.032 576.848 76.808C576.261 72.4667 575.322 68.7707 574.032 65.72C572.741 62.552 571.04 60.1467 568.928 58.504C566.816 56.744 564.293 55.864 561.36 55.864C558.309 55.864 555.728 56.744 553.616 58.504C551.621 60.1467 549.92 62.552 548.512 65.72C547.221 68.7707 546.282 72.4667 545.696 76.808C545.109 81.032 544.816 85.7253 544.816 90.888C544.816 96.0507 545.109 100.803 545.696 105.144C546.282 109.368 547.221 113.005 548.512 116.056C549.92 119.107 551.621 121.512 553.616 123.272C555.728 124.915 558.309 125.736 561.36 125.736C564.293 125.736 566.816 124.915 568.928 123.272C571.04 121.512 572.741 119.107 574.032 116.056C575.322 113.005 576.261 109.368 576.848 105.144C577.434 100.803 577.728 96.0507 577.728 90.888ZM669.404 134.36C667.879 134.947 666.002 135.533 663.772 136.12C661.66 136.589 659.372 137 656.908 137.352C654.562 137.821 652.156 138.173 649.692 138.408C647.346 138.76 645.175 138.936 643.18 138.936C638.37 138.936 633.97 138.349 629.98 137.176C625.991 136.12 622.588 134.184 619.772 131.368C616.956 128.552 614.786 124.739 613.26 119.928C611.735 115 610.972 108.84 610.972 101.448V44.6H626.108V100.92C626.108 109.955 627.458 116.349 630.156 120.104C632.972 123.741 637.196 125.56 642.828 125.56C644.706 125.56 646.583 125.501 648.46 125.384C650.338 125.149 652.274 124.739 654.268 124.152V44.6H669.404V134.36ZM735.663 55.864C733.081 60.2053 730.148 65.368 726.863 71.352C723.577 77.336 720.292 83.496 717.007 89.832C713.839 96.0507 710.788 102.211 707.855 108.312C705.039 114.296 702.751 119.517 700.991 123.976H736.895V137H685.327V126.088C687.204 120.925 689.609 115.176 692.543 108.84C695.476 102.504 698.527 96.168 701.695 89.832C704.98 83.496 708.148 77.512 711.199 71.88C714.367 66.1307 717.065 61.3787 719.295 57.624H687.439V44.6H735.663V55.864ZM753.869 46.536C756.92 45.2453 760.146 44.248 763.549 43.544C766.952 42.7227 770.648 42.312 774.637 42.312C782.85 42.312 789.538 44.8933 794.701 50.056C799.864 55.1013 802.445 63.0213 802.445 73.816V135.064C798.221 136.237 793.88 137.176 789.421 137.88C785.08 138.584 780.797 138.936 776.573 138.936C772.349 138.936 768.36 138.408 764.605 137.352C760.968 136.296 757.741 134.595 754.925 132.248C752.226 129.901 750.056 126.968 748.413 123.448C746.77 119.811 745.949 115.411 745.949 110.248C745.949 105.437 746.653 101.272 748.061 97.752C749.586 94.1147 751.64 91.1227 754.221 88.776C756.802 86.312 759.853 84.4933 763.373 83.32C766.893 82.0293 770.706 81.384 774.813 81.384C778.685 81.384 782.968 81.8533 787.661 82.792V74.344C787.661 67.5387 786.312 62.7867 783.613 60.088C781.032 57.3893 777.277 56.04 772.349 56.04C769.65 56.04 767.069 56.3333 764.605 56.92C762.258 57.3893 759.736 58.2107 757.037 59.384L753.869 46.536ZM761.085 110.072C761.085 115.469 762.493 119.459 765.309 122.04C768.125 124.621 772.114 125.912 777.277 125.912C780.445 125.912 783.906 125.501 787.661 124.68V95.288C784.141 94.3493 780.68 93.88 777.277 93.88C775.048 93.88 772.936 94.1733 770.941 94.76C768.946 95.2293 767.186 96.1093 765.661 97.4C764.253 98.5733 763.138 100.216 762.317 102.328C761.496 104.323 761.085 106.904 761.085 110.072Z" fill="#F0F6FC"/>
</svg>
