<svg width="57" height="57" viewBox="0 0 57 57" fill="none" xmlns="http://www.w3.org/2000/svg">
<path fill-rule="evenodd" clip-rule="evenodd" d="M28.34 5.21924C14.739 5.21924 3.70996 16.2459 3.70996 29.8491C3.70996 40.7312 10.7673 49.9636 20.5535 53.2205C21.7843 53.4484 22.2363 52.6859 22.2363 52.0355C22.2363 51.4485 22.2137 49.5079 22.203 47.4498C15.3509 48.9399 13.905 44.5438 13.905 44.5438C12.7845 41.6971 11.1704 40.9399 11.1704 40.9399C8.93551 39.4112 11.3389 39.4427 11.3389 39.4427C13.8119 39.6164 15.1144 41.9813 15.1144 41.9813C17.3111 45.7464 20.8762 44.6577 22.2819 44.0284C22.503 42.4367 23.141 41.3499 23.8456 40.7349C18.3749 40.1123 12.6238 38.0001 12.6238 28.5626C12.6238 25.8738 13.586 23.6766 15.1617 21.9517C14.906 21.3311 14.0629 18.8261 15.4004 15.4333C15.4004 15.4333 17.4687 14.7718 22.175 17.9584C24.1398 17.4126 26.247 17.1389 28.3401 17.1294C30.4331 17.1389 32.5417 17.4126 34.51 17.9584C39.2112 14.7718 41.2766 15.4333 41.2766 15.4333C42.6172 18.8261 41.774 21.3311 41.5183 21.9517C43.0976 23.6766 44.0531 25.8737 44.0531 28.5626C44.0531 38.0228 38.2912 40.1054 32.8065 40.7153C33.6899 41.4797 34.4769 42.9786 34.4769 45.2764C34.4769 48.5719 34.4487 51.2242 34.4487 52.0355C34.4487 52.6911 34.892 53.4592 36.1403 53.2174C45.9215 49.9569 52.9698 40.7277 52.9698 29.8491C52.9698 16.2459 41.9424 5.21924 28.34 5.21924Z" fill="white"/>
<path d="M13.0386 40.5822C12.9844 40.7049 12.7916 40.7416 12.6163 40.6576C12.4375 40.5772 12.3376 40.4103 12.3953 40.2876C12.4483 40.1616 12.641 40.1266 12.8195 40.2107C12.9984 40.2912 13.1004 40.4595 13.0386 40.5822Z" fill="white"/>
<path d="M14.0364 41.6952C13.919 41.8038 13.6891 41.7533 13.5333 41.5813C13.372 41.4095 13.3422 41.1796 13.4614 41.0694C13.5825 40.9606 13.8052 41.0115 13.9664 41.1833C14.1278 41.357 14.1591 41.5849 14.0364 41.6952Z" fill="white"/>
<path d="M15.0076 43.1135C14.8566 43.2186 14.6096 43.1201 14.457 42.9011C14.306 42.682 14.3061 42.4193 14.4606 42.314C14.6132 42.2089 14.8566 42.3036 15.0111 42.5208C15.1617 42.7436 15.1617 43.0064 15.0076 43.1135Z" fill="white"/>
<path d="M16.3378 44.4841C16.2027 44.633 15.915 44.5927 15.7048 44.3896C15.4893 44.1912 15.4296 43.9094 15.5646 43.7604C15.7017 43.6114 15.9908 43.6531 16.2026 43.8547C16.4165 44.053 16.4815 44.3366 16.3378 44.4841Z" fill="white"/>
<path d="M18.1732 45.2799C18.1135 45.4726 17.8368 45.5602 17.5579 45.4782C17.2791 45.3937 17.0971 45.1679 17.1532 44.9731C17.2109 44.7788 17.4892 44.6876 17.77 44.7752C18.0485 44.8592 18.2309 45.0835 18.1732 45.2799Z" fill="white"/>
<path d="M20.1891 45.4273C20.1958 45.6304 19.9592 45.7989 19.6665 45.8025C19.3721 45.8092 19.1335 45.6448 19.1304 45.4448C19.1304 45.2396 19.3616 45.0731 19.6561 45.068C19.9488 45.0624 20.1891 45.2257 20.1891 45.4273Z" fill="white"/>
<path d="M22.065 45.1082C22.1 45.3062 21.8963 45.5097 21.6055 45.5639C21.3196 45.6165 21.0552 45.4938 21.0186 45.2974C20.9832 45.0943 21.1902 44.8908 21.4759 44.8382C21.7671 44.7876 22.0279 44.9066 22.065 45.1082Z" fill="white"/>
</svg>
