<svg width="24" height="24" viewBox="0 0 24 24" fill="none" xmlns="http://www.w3.org/2000/svg">
<path d="M3.88994 15.673L6.25494 0.461012C6.27206 0.34825 6.32432 0.243763 6.40427 0.162424C6.48422 0.0810849 6.58779 0.0270408 6.70025 0.0079851C6.8127 -0.0110706 6.92829 0.00583323 7.03058 0.0562903C7.13287 0.106747 7.21663 0.188186 7.26994 0.289012L9.81294 5.06001L3.88994 15.673ZM20.6849 19.364L18.4329 5.36501C18.4164 5.26689 18.3732 5.1752 18.3081 5.09997C18.2429 5.02473 18.1584 4.96884 18.0636 4.93839C17.9689 4.90795 17.8676 4.90412 17.7708 4.92734C17.6741 4.95055 17.5856 4.9999 17.5149 5.07001L3.31494 19.364L11.1719 23.792C11.4143 23.9281 11.6875 23.9997 11.9654 23.9997C12.2434 23.9997 12.5166 23.9281 12.7589 23.792L20.6849 19.364ZM14.2999 7.14801L12.4799 3.66601C12.434 3.57845 12.365 3.50511 12.2804 3.45395C12.1958 3.40278 12.0988 3.37573 11.9999 3.37573C11.9011 3.37573 11.8041 3.40278 11.7195 3.45395C11.6349 3.50511 11.5659 3.57845 11.5199 3.66601L3.52994 17.984L14.2999 7.14801Z" fill="white"/>
</svg>
