<svg width="57" height="57" viewBox="0 0 57 57" fill="none" xmlns="http://www.w3.org/2000/svg">
<path d="M30.071 27.101V27.024C30.055 27.05 30.038 27.076 30.021 27.101H30.071Z" fill="white"/>
<path d="M49.2651 4.66699H7.14514C5.12914 4.66699 3.49414 6.26299 3.49414 8.22999V50.843C3.49414 52.809 5.12914 54.405 7.14514 54.405H49.2651C51.2841 54.405 52.9191 52.808 52.9191 50.843V8.22999C52.9191 6.26199 51.2831 4.66699 49.2651 4.66699ZM18.4751 46.304H11.0101V23.845H18.4751V46.304ZM14.7431 20.777H14.6931C12.1891 20.777 10.5691 19.052 10.5691 16.897C10.5691 14.694 12.2391 13.017 14.7921 13.017C17.3461 13.017 18.9171 14.694 18.9671 16.897C18.9671 19.052 17.3451 20.777 14.7431 20.777ZM45.3941 46.304H37.9291V34.286C37.9291 31.268 36.8491 29.208 34.1481 29.208C32.0861 29.208 30.8581 30.597 30.3171 31.939C30.1201 32.418 30.0721 33.088 30.0721 33.76V46.303H22.6071C22.6071 46.303 22.7051 25.949 22.6071 23.844H30.0721V27.023C31.0641 25.493 32.8381 23.314 36.8011 23.314C41.7121 23.314 45.3951 26.525 45.3951 33.424V46.304H45.3941Z" fill="white"/>
</svg>
