<svg width="24" height="24" viewBox="0 0 24 24" fill="none" xmlns="http://www.w3.org/2000/svg">
<path d="M17.1801 9.518C15.9171 3.958 12.9381 2.131 12.6181 1.432C12.2661 0.939 11.8851 0 11.8851 0C11.8831 0.019 11.8811 0.031 11.8801 0.049V0.062H11.8791C11.8771 0.077 11.8761 0.087 11.8751 0.101V0.116H11.8731C11.8731 0.126 11.8711 0.134 11.8711 0.142V0.168H11.8681C11.8671 0.176 11.8671 0.186 11.8651 0.193V0.214H11.8631C11.8631 0.221 11.8631 0.229 11.8611 0.235V0.255H11.8591C11.8591 0.265 11.8581 0.277 11.8571 0.287V0.289C11.8541 0.306 11.8511 0.323 11.8481 0.339V0.347H11.8461C11.8451 0.351 11.8431 0.355 11.8431 0.359V0.376H11.8401V0.398H11.8351V0.416H11.8301V0.437H11.8261V0.456H11.8221V0.473H11.8161V0.487H11.8121V0.505H11.8081V0.519H11.8031V0.532H11.8001V0.547H11.7961C11.7951 0.548 11.7951 0.55 11.7951 0.551V0.561H11.7921C11.7911 0.563 11.7911 0.565 11.7911 0.567V0.573H11.7891C11.7881 0.576 11.7871 0.581 11.7871 0.583C11.7841 0.59 11.7801 0.597 11.7771 0.604V0.606C11.7751 0.608 11.7731 0.611 11.7721 0.613V0.621H11.7681V0.629H11.7631V0.637H11.7601V0.647H11.7541V0.661H11.7501V0.665H11.7461V0.673H11.7421V0.684H11.7381V0.692H11.7321V0.703H11.7281V0.711H11.7231V0.719H11.7201V0.729H11.7151V0.737H11.7111V0.743H11.7071V0.751H11.7011V0.76H11.6971V0.766H11.6921V0.774H11.6881V0.785H11.6831V0.789H11.6801V0.797H11.6741V0.801H11.6701V0.811H11.6661V0.815H11.6621V0.823H11.6571V0.829H11.6541L11.6521 0.833V0.837H11.6501C11.6491 0.839 11.6481 0.839 11.6481 0.841V0.842H11.6471C11.6461 0.845 11.6451 0.847 11.6431 0.849V0.852H11.6421C11.6371 0.858 11.6341 0.864 11.6301 0.87V0.871C11.6281 0.873 11.6231 0.877 11.6211 0.881V0.883H11.6201C11.6191 0.884 11.6171 0.885 11.6171 0.886V0.889H11.6151L11.6121 0.892V0.893H11.6111C11.6111 0.894 11.6091 0.895 11.6081 0.897V0.901H11.6051L11.6031 0.903V0.905H11.6011C11.6011 0.907 11.5991 0.907 11.5991 0.908V0.911H11.5951C11.5951 0.912 11.5941 0.913 11.5931 0.914V0.92H11.5901V0.924H11.5861V0.93H11.5821V0.938H11.5771V0.93H11.5721V0.934H11.5681V0.94H11.5631V0.948H11.5581V0.952H11.5541V0.958H11.5501V0.962H11.5461V0.97H11.5401V0.974H11.5361V0.98H11.5311V0.984H11.5271V0.989H11.5221V0.999H11.5201V1.003H11.5141V1.008H11.5101V1.01H11.5061V1.014H11.5011V1.024H11.4971V1.028H11.4921V1.032H11.4881V1.038H11.4831V1.042H11.4781V1.046H11.4741V1.05H11.4701V1.06H11.4661V1.065H11.4601V1.069H11.4561V1.073H11.4511V1.079H11.4471V1.083H11.4421V1.09H11.4381V1.094H11.4321V1.1H11.4301V1.104H11.4261V1.108H11.4211V1.112H11.4171V1.118H11.4121V1.122H11.4091C11.4081 1.123 11.4081 1.124 11.4081 1.124V1.126H11.4061L11.4021 1.13C11.4021 1.13 11.4001 1.132 11.3981 1.133V1.139H11.3941V1.144H11.3901V1.148H11.3861V1.152H11.3831L11.3801 1.155V1.158H11.3781L11.3761 1.16V1.163H11.3741C11.3691 1.169 11.3671 1.173 11.3601 1.179C11.3581 1.181 11.3521 1.186 11.3481 1.189C11.3361 1.197 11.3211 1.21 11.3091 1.221C11.3011 1.226 11.2931 1.233 11.2871 1.238V1.239H11.2861C11.2701 1.252 11.2551 1.264 11.2371 1.278V1.279C11.2131 1.299 11.1901 1.318 11.1631 1.341V1.34H11.1611C11.1041 1.387 11.0441 1.44 10.9751 1.499V1.5H10.9741C10.8051 1.648 10.6041 1.838 10.3791 2.068L10.3641 2.083L10.3601 2.087C9.00014 3.494 6.85714 6.426 6.63114 11.164C6.61114 11.556 6.61514 11.937 6.63714 12.308V12.317C6.74614 14.184 7.33214 15.778 8.06514 17.073V17.074C8.35714 17.59 8.67214 18.059 8.99114 18.479V18.48C10.0931 19.935 11.2181 20.797 11.5051 21.006C11.9461 22.029 11.9051 23.785 11.9051 23.785L12.5491 24C12.5491 24 12.4181 22.299 12.6021 21.478C12.6591 21.221 12.7941 21.002 12.9511 20.816C13.0571 20.741 13.3711 20.515 13.7481 20.171C13.7661 20.152 13.7761 20.135 13.7921 20.117C15.3131 18.699 18.1541 15.207 17.1801 9.518V9.518Z" fill="white"/>
</svg>
