<svg width="24" height="24" viewBox="0 0 24 24" fill="none" xmlns="http://www.w3.org/2000/svg">
<path d="M16.405 5.67605C16.29 5.67605 16.212 5.69005 16.131 5.70905V5.72205H16.145C16.199 5.82605 16.291 5.90205 16.359 5.99505C16.413 6.10205 16.459 6.20905 16.513 6.31505L16.527 6.30006C16.621 6.23406 16.667 6.12805 16.667 5.96705C16.627 5.92005 16.621 5.87305 16.587 5.82705C16.547 5.76005 16.461 5.72705 16.407 5.67405L16.405 5.67605ZM5.77 18.8701H4.843C4.813 17.3081 4.72 15.8401 4.573 14.4601H4.565L3.155 18.8701H2.45L1.05 14.4601H1.04C0.937 15.7831 0.872 17.2531 0.845 18.8701H0C0.055 16.9041 0.192 15.0601 0.41 13.3401H1.56L2.895 17.4041H2.903L4.25 13.3401H5.345C5.587 15.3551 5.729 17.2001 5.773 18.8701H5.77ZM9.787 14.7901C9.409 16.8351 8.911 18.3231 8.295 19.2501C7.813 19.9661 7.285 20.3231 6.712 20.3231C6.559 20.3231 6.372 20.2771 6.146 20.1851V19.6911C6.256 19.7081 6.386 19.7171 6.532 19.7171C6.8 19.7171 7.015 19.6421 7.179 19.4951C7.376 19.3151 7.474 19.1131 7.474 18.8901C7.474 18.7351 7.397 18.4201 7.244 17.9461L6.23 14.7901H7.14L7.867 17.1501C8.031 17.6861 8.1 18.0601 8.072 18.2731C8.472 17.2091 8.75 16.0461 8.907 14.7901H9.787V14.7901ZM22.112 18.8701H19.482V13.3401H20.367V18.1901H22.112V18.8701ZM18.792 19.0051L17.776 18.5051C17.866 18.4291 17.953 18.3471 18.031 18.2551C18.464 17.7491 18.679 16.9971 18.679 16.0021C18.679 14.1721 17.961 13.2561 16.524 13.2561C15.82 13.2561 15.27 13.4881 14.874 13.9531C14.444 14.4611 14.228 15.2091 14.228 16.1981C14.228 17.1701 14.418 17.8841 14.802 18.3381C15.152 18.7481 15.679 18.9531 16.385 18.9531C16.649 18.9531 16.891 18.9201 17.11 18.8551L18.435 19.6271L18.795 19.0051H18.792ZM15.5 17.7631C15.275 17.4031 15.163 16.8231 15.163 16.0271C15.163 14.6341 15.587 13.9371 16.433 13.9371C16.876 13.9371 17.203 14.1041 17.41 14.4371C17.634 14.7991 17.746 15.3731 17.746 16.1601C17.746 17.5641 17.322 18.2681 16.476 18.2681C16.031 18.2681 15.706 18.1011 15.498 17.7681L15.5 17.7631ZM13.842 17.3381C13.842 17.8081 13.67 18.1941 13.326 18.4941C12.982 18.7941 12.523 18.9441 11.942 18.9441C11.399 18.9441 10.878 18.7721 10.369 18.4291L10.606 17.9531C11.044 18.1731 11.439 18.2811 11.796 18.2811C12.128 18.2811 12.389 18.2081 12.579 18.0611C12.767 17.9141 12.879 17.7071 12.879 17.4461C12.879 17.1161 12.649 16.8361 12.231 16.6011C11.843 16.3881 11.068 15.9441 11.068 15.9441C10.646 15.6371 10.436 15.3081 10.436 14.7671C10.436 14.3171 10.593 13.9571 10.906 13.6821C11.221 13.4041 11.626 13.2671 12.126 13.2671C12.638 13.2671 13.106 13.4031 13.526 13.6771L13.313 14.1531C12.953 14.0011 12.598 13.9231 12.249 13.9231C11.966 13.9231 11.747 13.9911 11.595 14.1291C11.442 14.2651 11.347 14.4391 11.347 14.6531C11.347 14.9811 11.581 15.2631 12.013 15.5031C12.406 15.7181 13.2 16.1731 13.2 16.1731C13.633 16.4781 13.848 16.8031 13.848 17.3411L13.842 17.3381ZM23.224 11.4861C22.689 11.4721 22.274 11.5261 21.927 11.6741C21.827 11.7141 21.667 11.7141 21.653 11.8411C21.708 11.8941 21.716 11.9811 21.763 12.0551C21.843 12.1891 21.981 12.3681 22.109 12.4621C22.249 12.5721 22.389 12.6781 22.536 12.7721C22.796 12.9321 23.091 13.0271 23.346 13.1881C23.491 13.2821 23.639 13.4011 23.786 13.5011C23.859 13.5511 23.906 13.6411 24 13.6731V13.6531C23.954 13.5931 23.94 13.5061 23.895 13.4391C23.828 13.3721 23.761 13.3121 23.695 13.2461C23.501 12.9861 23.26 12.7591 23 12.5711C22.786 12.4251 22.318 12.2211 22.23 11.9761L22.217 11.9621C22.363 11.9491 22.537 11.8961 22.677 11.8561C22.904 11.7961 23.112 11.8091 23.347 11.7501C23.453 11.7231 23.56 11.6901 23.667 11.6561V11.5961C23.547 11.4761 23.457 11.3131 23.333 11.2011C22.993 10.9061 22.616 10.6191 22.229 10.3781C22.019 10.2441 21.753 10.1581 21.532 10.0441C21.452 10.0041 21.318 9.98405 21.272 9.91705C21.152 9.77105 21.082 9.57705 20.997 9.40305C20.805 9.03505 20.617 8.62805 20.45 8.24005C20.33 7.97805 20.257 7.71706 20.11 7.47706C19.42 6.34006 18.673 5.65105 17.524 4.97705C17.277 4.83705 16.981 4.77705 16.668 4.70305C16.501 4.69505 16.334 4.68305 16.168 4.67605C16.058 4.62905 15.952 4.50205 15.858 4.44105C15.478 4.20105 14.494 3.68105 14.214 4.36905C14.034 4.80305 14.481 5.23105 14.636 5.45105C14.751 5.60405 14.896 5.77905 14.976 5.95105C15.023 6.06705 15.036 6.18605 15.083 6.30705C15.189 6.60105 15.29 6.92905 15.43 7.20405C15.503 7.34405 15.583 7.49105 15.677 7.61705C15.731 7.69005 15.823 7.72405 15.844 7.84405C15.75 7.98005 15.744 8.17805 15.69 8.34405C15.45 9.10105 15.544 10.0371 15.884 10.5941C15.991 10.7601 16.246 11.1281 16.587 10.9871C16.887 10.8671 16.821 10.4871 16.907 10.1521C16.927 10.0721 16.914 10.0191 16.955 9.96505V9.98005C17.049 10.1681 17.143 10.3471 17.229 10.5351C17.435 10.8631 17.795 11.2031 18.096 11.4301C18.256 11.5501 18.383 11.7581 18.583 11.8321V11.8121H18.568C18.525 11.7541 18.468 11.7261 18.414 11.6791C18.294 11.5591 18.159 11.4121 18.064 11.2791C17.784 10.9021 17.537 10.4891 17.317 10.0611C17.207 9.85105 17.115 9.62506 17.027 9.41806C16.987 9.33806 16.987 9.21806 16.92 9.17806C16.82 9.32406 16.673 9.45105 16.6 9.63105C16.473 9.91905 16.46 10.2731 16.412 10.6411C16.385 10.6481 16.398 10.6411 16.385 10.6551C16.171 10.6031 16.098 10.3811 16.018 10.1951C15.818 9.72005 15.785 8.95705 15.958 8.41005C16.005 8.27005 16.205 7.82805 16.125 7.69405C16.083 7.56705 15.951 7.49405 15.878 7.39105C15.791 7.26705 15.698 7.10606 15.638 6.96406C15.478 6.59006 15.398 6.17605 15.224 5.80205C15.144 5.62905 15.004 5.44805 14.89 5.28905C14.763 5.10905 14.623 4.98205 14.522 4.76905C14.489 4.69605 14.442 4.57505 14.495 4.49505C14.509 4.44105 14.537 4.42005 14.589 4.40505C14.677 4.33305 14.924 4.42705 15.011 4.46705C15.258 4.56705 15.466 4.66105 15.673 4.80105C15.767 4.86705 15.868 4.99405 15.988 5.02705H16.128C16.342 5.07405 16.583 5.04105 16.783 5.10005C17.138 5.21405 17.458 5.38005 17.745 5.56005C18.621 6.11605 19.341 6.90506 19.83 7.84606C19.91 8.00006 19.945 8.14105 20.018 8.30105C20.158 8.63105 20.331 8.96405 20.473 9.28305C20.613 9.59805 20.748 9.91906 20.949 10.1801C21.049 10.3201 21.451 10.3931 21.631 10.4661C21.764 10.5261 21.971 10.5811 22.091 10.6541C22.321 10.7941 22.545 10.9541 22.761 11.1081C22.871 11.1841 23.204 11.3511 23.224 11.4861V11.4861Z" fill="white"/>
</svg>
