<svg width="24" height="24" viewBox="0 0 24 24" fill="none" xmlns="http://www.w3.org/2000/svg">
<path d="M17.1279 0C16.1954 0.00693644 15.2683 0.142549 14.3729 0.403L14.3099 0.423C13.7451 0.323188 13.1733 0.268017 12.5999 0.258C11.4219 0.238 10.4099 0.524 9.59386 1C8.78986 0.721 7.12186 0.24 5.36386 0.336C4.13986 0.403 2.80386 0.775 1.81386 1.82C0.826862 2.865 0.304862 4.482 0.414862 6.682C0.444862 7.289 0.617862 8.279 0.904862 9.561C1.19186 10.843 1.59486 12.344 2.09786 13.713C2.60086 15.083 3.15186 16.313 4.01286 17.149C4.44286 17.568 5.03486 17.92 5.73286 17.891C6.22286 17.871 6.66586 17.656 7.04786 17.339C7.23386 17.584 7.43286 17.691 7.61386 17.79C7.84186 17.915 8.06386 18 8.29386 18.056C8.70686 18.159 9.41386 18.297 10.2419 18.156C10.5239 18.109 10.8209 18.017 11.1169 17.886C11.1279 18.216 11.1409 18.539 11.1539 18.866C11.1949 19.902 11.2209 20.859 11.5319 21.698C11.5819 21.835 11.7189 22.541 12.2589 23.164C12.7989 23.788 13.8569 24.177 15.0619 23.919C15.9119 23.737 16.9929 23.409 17.7109 22.387C18.4209 21.377 18.7409 19.928 18.8039 17.578C18.8199 17.451 18.8389 17.343 18.8589 17.242L19.0279 17.257H19.0479C19.9549 17.298 20.9389 17.169 21.7609 16.787C22.4889 16.45 23.0399 16.109 23.4409 15.504C23.5409 15.354 23.6509 15.173 23.6809 14.861C23.7109 14.549 23.5319 14.061 23.2349 13.836C22.6399 13.384 22.2659 13.556 21.8649 13.639C21.4698 13.7263 21.0673 13.7752 20.6629 13.785C21.8189 11.838 22.6479 9.77 23.1209 7.94C23.4009 6.86 23.5579 5.864 23.5709 4.993C23.5839 4.122 23.5129 3.351 22.9909 2.684C21.3599 0.6 19.0669 0.024 17.2929 0.004C17.2379 0.003 17.1829 0.002 17.1279 0.003V0ZM17.0809 0.64C18.7589 0.624 20.9029 1.095 22.4419 3.062C22.7879 3.504 22.8909 4.15 22.8789 4.946C22.8659 5.741 22.7189 6.693 22.4499 7.736C21.9279 9.756 20.9419 12.111 19.5529 14.224C19.6019 14.2589 19.655 14.2877 19.7109 14.31C20.0009 14.43 20.6619 14.533 21.9809 14.262C22.3129 14.192 22.5559 14.145 22.8079 14.337C22.8691 14.3889 22.9175 14.4543 22.9492 14.528C22.981 14.6018 22.9952 14.6818 22.9909 14.762C22.9774 14.8834 22.9326 14.9992 22.8609 15.098C22.6059 15.481 22.1029 15.844 21.4579 16.143C20.8869 16.409 20.0679 16.548 19.3419 16.556C18.9779 16.56 18.6419 16.532 18.3569 16.443L18.3389 16.436C18.2289 17.496 17.9759 19.589 17.8109 20.544C17.6789 21.314 17.4479 21.926 17.0069 22.384C16.5669 22.842 15.9439 23.118 15.1059 23.298C14.0679 23.521 13.3109 23.281 12.8229 22.87C12.3359 22.46 12.1129 21.916 11.9789 21.583C11.8869 21.353 11.8389 21.055 11.7929 20.657C11.7469 20.259 11.7129 19.772 11.6899 19.223C11.6592 18.3824 11.6492 17.5411 11.6599 16.7C11.2263 17.0971 10.6875 17.361 10.1079 17.46C9.41886 17.577 8.80386 17.462 8.43686 17.37C8.25595 17.3246 8.0813 17.2571 7.91686 17.169C7.74686 17.078 7.58486 16.975 7.47686 16.772C7.4134 16.6557 7.39321 16.5207 7.41986 16.391C7.45366 16.2595 7.53038 16.143 7.63786 16.06C7.83586 15.899 8.09786 15.809 8.49286 15.727C9.21186 15.579 9.46286 15.478 9.61586 15.357C9.74586 15.253 9.89286 15.043 10.1529 14.735C10.1516 14.7214 10.1506 14.7077 10.1499 14.694C9.68455 14.6809 9.22888 14.5583 8.81986 14.336C8.66986 14.494 7.90386 15.304 6.96986 16.428C6.57686 16.898 6.14286 17.168 5.68486 17.187C5.22686 17.207 4.81286 16.976 4.46086 16.635C3.75786 15.952 3.19686 14.777 2.70786 13.449C2.21986 12.121 1.82286 10.642 1.54086 9.382C1.25786 8.122 1.09086 7.106 1.06686 6.616C0.961862 4.534 1.44886 3.131 2.28386 2.246C3.11986 1.361 4.26586 1.026 5.38286 0.962C7.38786 0.847 9.29186 1.546 9.67686 1.696C10.4189 1.192 11.3749 0.878 12.5689 0.898C13.1357 0.90595 13.6997 0.979098 14.2499 1.116L14.2699 1.107C14.512 1.02189 14.7587 0.950441 15.0089 0.893C15.6881 0.734555 16.3825 0.650394 17.0799 0.642L17.0809 0.64ZM17.2329 1.31H17.0869C16.5139 1.31799 15.9432 1.3823 15.3829 1.502C16.6289 2.054 17.5699 2.904 18.2329 3.752C18.6934 4.33914 19.0741 4.98477 19.3649 5.672C19.4749 5.936 19.5489 6.159 19.5909 6.332C19.6119 6.419 19.6259 6.492 19.6309 6.568C19.6329 6.606 19.6349 6.645 19.6189 6.712C19.6189 6.715 19.6139 6.722 19.6129 6.725C19.6429 7.601 19.4259 8.195 19.3999 9.031C19.3799 9.637 19.5349 10.349 19.5729 11.126C19.6089 11.856 19.5209 12.658 19.0469 13.445C19.0869 13.493 19.1229 13.541 19.1609 13.589C20.4149 11.614 21.3189 9.429 21.8009 7.566C22.0589 6.563 22.1959 5.654 22.2079 4.934C22.2179 4.214 22.0839 3.692 21.9129 3.474C20.5709 1.758 18.7549 1.321 17.2329 1.309V1.31ZM12.4429 1.566C11.2609 1.569 10.4129 1.926 9.76986 2.461C9.10686 3.014 8.66186 3.771 8.36986 4.546C8.02286 5.466 7.90386 6.356 7.85686 6.96L7.86986 6.952C8.22686 6.752 8.69586 6.552 9.19786 6.436C9.69986 6.321 10.2409 6.285 10.7309 6.475C11.2209 6.665 11.6259 7.112 11.7729 7.79C12.4769 11.047 11.5539 12.258 11.2139 13.172C11.0849 13.5033 10.9744 13.8415 10.8829 14.185C10.9259 14.175 10.9689 14.163 11.0119 14.159C11.2519 14.139 11.4399 14.219 11.5519 14.267C11.8939 14.409 12.1289 14.707 12.2559 15.047C12.2889 15.136 12.3129 15.232 12.3269 15.331C12.3416 15.3717 12.3484 15.4148 12.3469 15.458C12.3089 16.7038 12.3133 17.9505 12.3599 19.196C12.3829 19.734 12.4169 20.208 12.4599 20.582C12.5029 20.955 12.5639 21.239 12.6029 21.335C12.7309 21.655 12.9179 22.074 13.2559 22.359C13.5939 22.643 14.0789 22.833 14.9649 22.643C15.7329 22.478 16.2069 22.249 16.5239 21.92C16.8399 21.591 17.0289 21.133 17.1499 20.432C17.3309 19.382 17.6949 16.337 17.7389 15.764C17.7189 15.332 17.7829 15 17.9209 14.747C18.0629 14.487 18.2829 14.328 18.4729 14.242C18.5679 14.199 18.6569 14.17 18.7299 14.149C18.6526 14.0379 18.5715 13.9295 18.4869 13.824C18.2129 13.4918 17.9886 13.1216 17.8209 12.725C17.7405 12.5612 17.6548 12.4001 17.5639 12.242C17.4309 12.002 17.2629 11.702 17.0869 11.365C16.7349 10.69 16.3519 9.872 16.1529 9.075C15.9549 8.279 15.9259 7.455 16.4339 6.874C16.8839 6.358 17.6739 6.144 18.8599 6.264C18.8249 6.159 18.8039 6.072 18.7449 5.932C18.4767 5.30089 18.1267 4.7078 17.7039 4.168C16.6989 2.883 15.0719 1.609 12.5579 1.568H12.4429V1.566ZM5.80086 1.618C5.67386 1.618 5.54686 1.622 5.42086 1.629C4.41086 1.687 3.45586 1.98 2.77286 2.704C2.08886 3.428 1.63886 4.615 1.73686 6.58C1.75586 6.952 1.91786 7.994 2.19586 9.232C2.47286 10.47 2.86586 11.927 3.33786 13.214C3.81086 14.501 4.38386 15.621 4.92786 16.151C5.20186 16.416 5.43986 16.523 5.65586 16.514C5.87286 16.504 6.13386 16.379 6.45286 15.996C7.03447 15.2944 7.6381 14.6114 8.26286 13.948C7.81957 13.5631 7.48031 13.0728 7.27636 12.5223C7.07241 11.9718 7.01034 11.3788 7.09586 10.798C7.19886 10.059 7.21286 9.368 7.20086 8.822C7.18886 8.29 7.15086 7.936 7.15086 7.715C7.15068 7.70867 7.15068 7.70233 7.15086 7.696V7.691L7.14986 7.685V7.684C7.14927 6.53279 7.34961 5.39032 7.74186 4.308C8.02186 3.564 8.43886 2.808 9.06386 2.196C8.44986 1.994 7.35986 1.686 6.17986 1.628C6.0533 1.6215 5.92659 1.61817 5.79986 1.618H5.80086ZM18.1989 6.9C17.5199 6.909 17.1389 7.084 16.9389 7.313C16.6559 7.638 16.6289 8.208 16.8049 8.91C16.9799 9.613 17.3419 10.399 17.6819 11.052C17.8519 11.379 18.0169 11.673 18.1499 11.912C18.2839 12.152 18.3819 12.322 18.4419 12.467C18.4969 12.601 18.5579 12.719 18.6199 12.829C18.8829 12.274 18.9299 11.729 18.9029 11.161C18.8679 10.458 18.7049 9.739 18.7289 9.011C18.7559 8.16 18.9239 7.606 18.9389 6.948C18.6935 6.91621 18.4463 6.90018 18.1989 6.9V6.9ZM9.96486 7.015C9.75743 7.01693 9.55085 7.04175 9.34886 7.089C8.9463 7.18681 8.55855 7.3378 8.19586 7.538C8.07318 7.60381 7.95641 7.68009 7.84686 7.766L7.82486 7.786C7.83086 7.932 7.85986 8.286 7.87186 8.807C7.88386 9.377 7.86986 10.104 7.75986 10.891C7.52086 12.601 8.76186 14.017 10.2199 14.019C10.3049 13.668 10.4449 13.312 10.5849 12.937C10.9909 11.843 11.7899 11.045 11.1169 7.931C11.0069 7.421 10.7889 7.215 10.4889 7.099C10.3207 7.03953 10.1432 7.01107 9.96486 7.015V7.015ZM17.8819 7.219H17.9319C17.9979 7.221 18.0589 7.228 18.1119 7.241C18.1659 7.253 18.2119 7.271 18.2499 7.296C18.2694 7.30807 18.2861 7.3241 18.299 7.34305C18.3119 7.36199 18.3207 7.38344 18.3249 7.406L18.3239 7.414H18.3249H18.3239C18.3258 7.46147 18.3136 7.50846 18.2889 7.549C18.2594 7.60389 18.2223 7.65437 18.1789 7.699C18.0774 7.81071 17.9416 7.88533 17.7929 7.911C17.6482 7.92849 17.5021 7.8918 17.3829 7.808C17.334 7.77516 17.2903 7.73542 17.2529 7.69C17.2205 7.65432 17.1987 7.61035 17.1899 7.563C17.1878 7.53993 17.1904 7.51667 17.1976 7.49466C17.2049 7.47265 17.2165 7.45235 17.2319 7.435C17.2647 7.39772 17.3044 7.36715 17.3489 7.345C17.4449 7.291 17.5749 7.251 17.7219 7.229C17.7769 7.221 17.8309 7.217 17.8819 7.216V7.219ZM10.0619 7.387C10.1149 7.387 10.1709 7.392 10.2279 7.4C10.3809 7.421 10.5169 7.462 10.6209 7.522C10.6716 7.54847 10.7167 7.58446 10.7539 7.628C10.7741 7.65109 10.7893 7.67811 10.7986 7.70737C10.8079 7.73662 10.811 7.76747 10.8079 7.798C10.7982 7.8555 10.7722 7.90898 10.7329 7.952C10.692 8.00223 10.6437 8.04605 10.5899 8.082C10.4598 8.17414 10.3001 8.21443 10.1419 8.195C9.98019 8.16843 9.83222 8.0881 9.72186 7.967C9.67491 7.91824 9.63518 7.86301 9.60386 7.803C9.5709 7.7502 9.55647 7.68792 9.56286 7.626C9.57786 7.518 9.66686 7.462 9.75386 7.431C9.85296 7.39933 9.95696 7.38578 10.0609 7.391L10.0619 7.387ZM19.1219 14.73L19.1189 14.731C18.9719 14.784 18.8509 14.806 18.7489 14.851C18.6457 14.8907 18.5607 14.9668 18.5099 15.065C18.4469 15.18 18.3929 15.384 18.4089 15.731C18.4541 15.7622 18.5041 15.7858 18.5569 15.801C18.7279 15.853 19.0149 15.887 19.3349 15.882C19.9729 15.875 20.7579 15.726 21.1749 15.532C21.5169 15.3731 21.8345 15.166 22.1179 14.917H22.1169C20.7239 15.205 19.9369 15.128 19.4539 14.929C19.3339 14.8791 19.222 14.8117 19.1219 14.729V14.73ZM11.0909 14.824H11.0699C11.0169 14.829 10.9399 14.847 10.7909 15.012C10.4429 15.402 10.3209 15.647 10.0339 15.876C9.74686 16.104 9.37386 16.226 8.62886 16.379C8.39286 16.427 8.25786 16.48 8.16786 16.523C8.19686 16.547 8.19386 16.553 8.23786 16.576C8.34686 16.636 8.48686 16.689 8.59986 16.718C8.91986 16.798 9.44586 16.891 9.99486 16.798C10.5439 16.704 11.1149 16.441 11.6019 15.758C11.6859 15.64 11.6949 15.466 11.6259 15.279C11.5559 15.092 11.4029 14.931 11.2949 14.886C11.2306 14.855 11.1617 14.8347 11.0909 14.826V14.824Z" fill="white"/>
</svg>
