<svg width="24" height="24" viewBox="0 0 24 24" fill="none" xmlns="http://www.w3.org/2000/svg">
<path d="M16.111 17.338C15.254 18.327 14.777 20.128 15.402 20.709C15.998 21.158 17.603 21.1 18.787 19.479C19.647 18.399 19.356 16.586 18.868 16.107C18.138 15.552 17.09 16.271 16.111 17.35V17.338V17.338ZM8.05397 17.638C7.14597 16.598 5.96597 15.98 5.20297 16.439C4.69297 16.821 4.59797 18.124 5.32597 19.406C6.40397 20.93 7.92197 21.085 8.54697 20.713C9.20597 20.225 8.84697 18.576 8.05397 17.638V17.638ZM12.159 20.783C11.056 20.757 9.36097 21.222 9.38297 21.815C9.36497 22.218 10.714 23.387 12.088 23.328C13.414 23.358 14.787 22.189 14.77 21.679C14.766 21.156 13.272 20.752 12.163 20.795L12.159 20.783ZM12.084 6.839C10.809 6.807 9.58197 7.772 9.58197 8.332C9.57797 9.012 10.59 9.708 12.092 9.726C13.635 9.736 14.61 9.167 14.624 8.466C14.64 7.672 13.23 6.827 12.106 6.839H12.084V6.839ZM9.01297 7.371C6.87797 7.026 5.09997 8.271 5.17097 10.563C5.24097 11.447 9.80097 7.522 9.01397 7.386L9.01297 7.371V7.371ZM18.762 10.622C18.833 8.345 17.053 7.101 14.918 7.446C14.131 7.581 18.69 11.507 18.762 10.622ZM19.126 11.446C17.887 11.117 18.706 16.495 19.714 16.061C20.823 15.192 21.18 12.615 19.126 11.461V11.446ZM4.22797 16.121C5.23497 16.571 6.05497 11.192 4.81697 11.521C2.76397 12.674 3.11897 15.251 4.22797 16.136V16.121ZM13.643 10.173C12.497 10.923 12.289 12.601 13.182 13.919C14.073 15.237 15.725 15.732 16.873 14.997C18.019 14.264 18.226 12.585 17.335 11.251C16.443 9.918 14.79 9.438 13.643 10.188V10.173V10.173ZM10.547 10.308C9.40097 9.574 7.74797 10.054 6.85797 11.372C5.96597 12.706 6.17197 14.384 7.31897 15.133C8.46597 15.882 10.118 15.402 11.01 14.069C11.895 12.751 11.685 11.072 10.545 10.324L10.547 10.308ZM14.916 17.47C14.907 16.077 13.664 14.952 12.135 14.968C10.608 14.984 9.37397 16.107 9.38097 17.5V17.529C9.39097 18.923 10.635 20.046 12.164 20.031C13.691 20.031 14.92 18.893 14.906 17.514V17.485L14.916 17.47ZM18.125 2.337C15.818 3.521 14.473 4.465 13.736 5.275C14.113 6.773 16.08 6.833 16.799 6.787C16.652 6.727 16.528 6.638 16.484 6.518C16.664 6.398 17.305 6.502 17.752 6.263C17.581 6.233 17.5 6.202 17.423 6.068C17.842 5.933 18.298 5.828 18.564 5.603C18.421 5.603 18.286 5.633 18.097 5.513C18.474 5.319 18.875 5.154 19.192 4.855C18.996 4.855 18.786 4.855 18.726 4.78C19.072 4.57 19.361 4.345 19.603 4.076C19.331 4.121 19.213 4.092 19.149 4.046C19.41 3.791 19.742 3.567 19.898 3.236C19.695 3.312 19.507 3.326 19.376 3.236C19.467 3.042 19.846 2.922 20.066 2.457C19.851 2.487 19.625 2.503 19.58 2.457C19.678 2.068 19.849 1.844 20.015 1.603C19.558 1.603 18.865 1.603 18.898 1.574L19.181 1.289C18.733 1.169 18.277 1.304 17.945 1.409C17.796 1.304 17.945 1.154 18.13 1.004C17.74 1.065 17.397 1.139 17.096 1.26C16.932 1.11 17.201 0.975 17.336 0.824C16.737 0.944 16.497 1.094 16.242 1.244C16.062 1.079 16.227 0.93 16.346 0.795C15.897 0.959 15.672 1.169 15.432 1.363C15.342 1.259 15.223 1.184 15.372 0.914C15.058 1.094 14.818 1.304 14.638 1.543C14.444 1.409 14.519 1.244 14.519 1.094C14.189 1.364 13.979 1.634 13.725 1.905C13.664 1.874 13.62 1.755 13.59 1.559C12.811 2.309 11.701 4.182 13.305 4.915C14.654 3.821 16.286 3.012 18.084 2.412L18.125 2.337V2.337ZM5.86597 2.337C7.66397 2.937 9.28497 3.745 10.643 4.855C12.239 4.105 11.136 2.232 10.361 1.499C10.32 1.693 10.276 1.828 10.226 1.858C9.97097 1.588 9.76397 1.318 9.43797 1.048C9.43797 1.198 9.51497 1.378 9.32097 1.498C9.14597 1.259 8.91097 1.048 8.59597 0.868C8.74497 1.124 8.62097 1.198 8.53997 1.317C8.29997 1.092 8.07497 0.883 7.64097 0.718C7.76097 0.867 7.94097 1.018 7.76097 1.183C7.52197 1.034 7.26697 0.883 6.68297 0.763C6.81797 0.912 7.08697 1.063 6.92097 1.213C6.60597 1.091 6.26097 1.001 5.88597 0.955C6.06697 1.105 6.22797 1.244 6.07797 1.36C5.73297 1.24 5.27197 1.105 4.82297 1.225L5.10697 1.509C5.13697 1.546 4.44797 1.539 3.98597 1.544C4.15097 1.769 4.32297 1.993 4.42097 2.398C4.37597 2.443 4.15097 2.414 3.93797 2.398C4.16297 2.847 4.53697 2.968 4.62597 3.163C4.49097 3.259 4.31197 3.238 4.10297 3.163C4.26697 3.477 4.59697 3.702 4.85097 3.973C4.77697 4.017 4.67097 4.047 4.38697 4.01C4.62597 4.27 4.91097 4.504 5.25597 4.714C5.19597 4.784 4.98497 4.783 4.77697 4.789C5.09097 5.093 5.49597 5.253 5.87097 5.452C5.67597 5.588 5.54097 5.557 5.40597 5.557C5.66097 5.782 6.12597 5.886 6.54497 6.021C6.45497 6.156 6.38097 6.186 6.20097 6.216C6.64997 6.47 7.27897 6.351 7.45897 6.486C7.41397 6.605 7.29497 6.695 7.14497 6.756C7.86397 6.801 9.84197 6.741 10.217 5.242C9.48097 4.435 8.13297 3.49 5.82597 2.321L5.86597 2.337V2.337ZM7.59997 0.103C7.83597 0.096 8.03597 0.238 8.25197 0.304C8.78097 0.134 8.90197 0.367 9.16197 0.463C9.73897 0.343 9.91397 0.604 10.191 0.882L10.513 0.873C11.382 1.38 11.818 2.409 11.97 2.938C12.122 2.409 12.554 1.379 13.427 0.873L13.748 0.88C14.025 0.597 14.201 0.341 14.777 0.462C15.038 0.357 15.157 0.132 15.688 0.296C16.018 0.192 16.308 -0.079 16.745 0.251C17.113 0.102 17.471 0.056 17.79 0.341C18.285 0.281 18.443 0.402 18.564 0.551C18.672 0.551 19.373 0.447 19.696 0.911C20.506 0.821 20.76 1.375 20.47 1.899C20.635 2.154 20.807 2.393 20.42 2.874C20.57 3.143 20.482 3.427 20.15 3.787C20.241 4.161 20.076 4.417 19.776 4.626C19.836 5.136 19.296 5.436 19.147 5.54C19.086 5.84 18.966 6.124 18.352 6.274C18.263 6.723 17.888 6.797 17.528 6.888C18.713 7.563 19.716 8.446 19.716 10.619L19.897 10.918C21.246 11.727 22.459 14.32 20.571 16.432C20.452 17.091 20.242 17.556 20.06 18.08C19.791 20.193 17.978 21.181 17.499 21.301C16.81 21.826 16.061 22.321 15.057 22.664C14.115 23.625 13.081 24 12.063 24H11.971C10.938 24 9.90797 23.625 8.95897 22.665C7.95197 22.321 7.20497 21.827 6.51197 21.302C6.03297 21.182 4.22897 20.195 3.94997 18.081C3.76297 17.557 3.55597 17.077 3.43197 16.419C1.53797 14.306 2.75097 11.714 4.09797 10.904L4.26997 10.604C4.26997 8.432 5.27497 7.547 6.45797 6.874C6.09897 6.784 5.73797 6.709 5.63497 6.259C5.01997 6.109 4.89997 5.825 4.83997 5.525C4.68997 5.42 4.15097 5.121 4.21097 4.597C3.91097 4.386 3.74597 4.132 3.83597 3.743C3.52197 3.397 3.43197 3.098 3.56597 2.828C3.17597 2.349 3.35697 2.095 3.52097 1.854C3.23597 1.329 3.49097 0.76 4.29997 0.85C4.61397 0.385 5.31997 0.491 5.42297 0.491C5.54397 0.341 5.70797 0.206 6.20197 0.266C6.51597 -0.019 6.87697 0.026 7.25097 0.164C7.40197 0.044 7.53697 0 7.65697 0L7.59997 0.103Z" fill="white"/>
</svg>
