<svg width="50" height="50" viewBox="0 0 50 50" fill="none" xmlns="http://www.w3.org/2000/svg">
<path d="M46 10H35V9.7C35 7.65783 34.1888 5.69931 32.7447 4.25528C31.3007 2.81125 29.3422 2 27.3 2H22.7C20.6578 2 18.6993 2.81125 17.2553 4.25528C15.8112 5.69931 15 7.65783 15 9.7V10H4C3.46957 10 2.96086 10.2107 2.58579 10.5858C2.21071 10.9609 2 11.4696 2 12V46C2 46.5304 2.21071 47.0391 2.58579 47.4142C2.96086 47.7893 3.46957 48 4 48H46C46.5304 48 47.0391 47.7893 47.4142 47.4142C47.7893 47.0391 48 46.5304 48 46V12C48 11.4696 47.7893 10.9609 47.4142 10.5858C47.0391 10.2107 46.5304 10 46 10ZM19 9.7C19 8.7187 19.3898 7.77759 20.0837 7.0837C20.7776 6.38982 21.7187 6 22.7 6H27.2C27.6942 5.98664 28.1861 6.07247 28.6467 6.25242C29.1072 6.43237 29.5269 6.70279 29.8812 7.04771C30.2354 7.39262 30.5169 7.80504 30.7091 8.26059C30.9013 8.71614 31.0002 9.20558 31 9.7V10H19V9.7ZM17 14H44V25H30V23C30 22.4696 29.7893 21.9609 29.4142 21.5858C29.0391 21.2107 28.5304 21 28 21H22C21.4696 21 20.9609 21.2107 20.5858 21.5858C20.2107 21.9609 20 22.4696 20 23V25H6V14H17ZM26 25V29H24V25H26ZM6 44V29H20V31C20 31.5304 20.2107 32.0391 20.5858 32.4142C20.9609 32.7893 21.4696 33 22 33H28C28.5304 33 29.0391 32.7893 29.4142 32.4142C29.7893 32.0391 30 31.5304 30 31V29H44V44H6Z" fill="white"/>
</svg>
