<svg width="57" height="57" viewBox="0 0 57 57" fill="none" xmlns="http://www.w3.org/2000/svg">
<path d="M43.9112 28.21H12.7822C7.83424 28.21 3.82324 32.225 3.82324 37.172V44.373C3.82324 49.32 7.83424 53.334 12.7822 53.334H43.9112C48.8582 53.334 52.8702 49.32 52.8702 44.373V37.172C52.8702 32.225 48.8582 28.21 43.9112 28.21ZM19.3222 33.816H16.4282V48.196H13.6322V33.816H10.7402V31.37H19.3222V33.816V33.816ZM27.4972 48.196H25.0172V46.836C24.5562 47.339 24.0812 47.723 23.5852 47.982C23.0892 48.252 22.6102 48.378 22.1442 48.378C21.5682 48.378 21.1402 48.195 20.8472 47.823C20.5592 47.452 20.4122 46.902 20.4122 46.159V35.782H22.8922V45.305C22.8922 45.599 22.9472 45.81 23.0462 45.941C23.1532 46.076 23.3232 46.138 23.5562 46.138C23.7362 46.138 23.9682 46.052 24.2472 45.878C24.5282 45.702 24.7842 45.482 25.0172 45.21V35.781H27.4972V48.196V48.196ZM36.5012 45.633C36.5012 46.51 36.3062 47.184 35.9172 47.654C35.5302 48.124 34.9642 48.355 34.2312 48.355C33.7432 48.355 33.3092 48.267 32.9322 48.085C32.5532 47.905 32.1962 47.628 31.8712 47.244V48.195H29.3612V31.37H31.8712V36.789C32.2072 36.414 32.5622 36.123 32.9332 35.928C33.3122 35.729 33.6932 35.633 34.0792 35.633C34.8642 35.633 35.4622 35.895 35.8762 36.424C36.2922 36.953 36.4992 37.728 36.4992 38.744V45.633H36.5012ZM45.1042 42.288H40.3582V44.627C40.3582 45.279 40.4382 45.733 40.6002 45.986C40.7662 46.24 41.0452 46.364 41.4422 46.364C41.8542 46.364 42.1392 46.257 42.3052 46.043C42.4652 45.827 42.5512 45.357 42.5512 44.627V44.062H45.1042V44.699C45.1042 45.971 44.7952 46.93 44.1682 47.577C43.5512 48.218 42.6212 48.536 41.3852 48.536C40.2722 48.536 39.3952 48.197 38.7582 47.515C38.1232 46.837 37.7992 45.896 37.7992 44.7V39.124C37.7992 38.051 38.1532 37.168 38.8562 36.491C39.5572 35.814 40.4602 35.476 41.5712 35.476C42.7082 35.476 43.5812 35.789 44.1902 36.417C44.7992 37.046 45.1042 37.946 45.1042 39.123V42.288V42.288Z" fill="white"/>
<path d="M41.4664 37.646C41.0704 37.646 40.7884 37.757 40.6164 37.989C40.4404 38.207 40.3584 38.58 40.3584 39.101V40.356H42.5514V39.101C42.5514 38.58 42.4634 38.206 42.2894 37.989C42.1224 37.758 41.8434 37.646 41.4664 37.646Z" fill="white"/>
<path d="M32.9091 37.604C32.7331 37.604 32.5551 37.643 32.3841 37.724C32.2101 37.803 32.0401 37.934 31.8721 38.104V45.837C32.0711 46.037 32.2681 46.191 32.4601 46.279C32.6511 46.364 32.8491 46.412 33.0601 46.412C33.3651 46.412 33.5871 46.324 33.7301 46.146C33.8711 45.97 33.9431 45.689 33.9431 45.292V38.881C33.9431 38.459 33.8591 38.143 33.6831 37.926C33.5011 37.712 33.2431 37.604 32.9091 37.604Z" fill="white"/>
<path d="M16.8583 23.898H20.0023V16.208L23.6633 5.35999H20.4673L18.5213 12.77H18.3233L16.2803 5.35999H13.1133L16.8583 16.554V23.898Z" fill="white"/>
<path d="M27.9232 24.243C29.1932 24.243 30.1892 23.91 30.9152 23.244C31.6362 22.575 31.9972 21.662 31.9972 20.492V13.428C31.9972 12.387 31.6282 11.53 30.8932 10.869C30.1532 10.21 29.2052 9.87799 28.0492 9.87799C26.7792 9.87799 25.7682 10.192 25.0162 10.819C24.2662 11.446 23.8892 12.287 23.8892 13.35V20.438C23.8892 21.601 24.2562 22.521 24.9892 23.211C25.7222 23.898 26.7022 24.243 27.9232 24.243ZM26.7652 13.246C26.7652 12.949 26.8722 12.709 27.0812 12.521C27.2982 12.337 27.5732 12.248 27.9152 12.248C28.2842 12.248 28.5832 12.337 28.8112 12.521C29.0382 12.709 29.1512 12.949 29.1512 13.246V20.697C29.1512 21.062 29.0402 21.352 28.8152 21.561C28.5922 21.771 28.2922 21.874 27.9152 21.874C27.5462 21.874 27.2612 21.774 27.0612 21.564C26.8642 21.359 26.7642 21.071 26.7642 20.696V13.246H26.7652Z" fill="white"/>
<path d="M36.2141 24.098C36.7391 24.098 37.2781 23.948 37.8331 23.66C38.3941 23.368 38.9311 22.941 39.4421 22.384V23.899H42.2351V10.224H39.4421V20.604C39.1821 20.901 38.8931 21.145 38.5831 21.339C38.2671 21.531 38.0071 21.627 37.8021 21.627C37.5401 21.627 37.3471 21.555 37.2341 21.406C37.1191 21.263 37.0541 21.029 37.0541 20.708V10.224H34.2651V21.653C34.2651 22.468 34.4291 23.077 34.7531 23.481C35.0831 23.891 35.5651 24.098 36.2141 24.098Z" fill="white"/>
</svg>
